<svg xmlns="http://www.w3.org/2000/svg" width="9920" height="9920">
    <path
        d="M3648 1099a23423674.527 23423674.527 0 0 1 173.893-.016 9484307.994 9484307.994 0 0 1 630.416-.04c66.766-.002 133.532-.006 200.298-.013h2.109a17647306.148 17647306.148 0 0 0 132.077-.013h2.083c43.441-.005 86.882-.007 130.322-.01h2.052a4908745.54 4908745.54 0 0 1 127.5-.003h3.984c37.693-.001 75.386-.004 113.078-.01 236.254-.034 236.254-.034 583.362.525l19.009.053c20.958.058 41.916.12 62.874.192 5.182.017 10.364.032 15.546.047 29.008.083 58.014.262 87.02.714l5.895.089c12.25.186 24.495.422 36.736.964l2.639.116c17.945.867 17.945.867 26.16 3.822 5.093 1.72 10.2 2.694 15.49 3.599l6.144 1.09 3.215.565c88.397 15.582 172.571 45.638 292.61 104.896 2.993 1.724 6.019 3.378 9.053 5.027 11.717 6.38 23.052 13.395 34.428 20.36a589.357 589.357 0 0 0 10.089 6.034c10.848 6.344 21.34 13.169 31.793 20.137l2.11 1.405c12.585 8.391 24.907 17.115 37.078 26.095l2.388 1.762c9.596 7.1 19.084 14.34 28.549 21.613l2.404 1.845c14.996 11.525 29.595 23.508 43.984 35.781 1.699 1.448 3.401 2.891 5.104 4.335a630.556 630.556 0 0 1 19.856 17.601 263.224 263.224 0 0 0 6.465 5.75c8.978 7.796 17.699 15.982 25.964 24.528 1.91 1.856 3.861 3.588 5.88 5.324 4.849 4.213 9.376 8.722 13.905 13.274 1.218 1.21 1.218 1.21 2.46 2.447 4.285 4.292 8.39 8.666 12.345 13.264 2.577 2.92 5.348 5.63 8.133 8.351 4.063 4.018 8.003 8.063 11.703 12.422 1.867 2.159 3.796 4.254 5.738 6.346 4.814 5.187 9.374 10.502 13.813 16.017 2.334 2.822 4.766 5.52 7.246 8.215 4.04 4.394 7.847 8.918 11.594 13.563 2.704 3.3 5.487 6.525 8.281 9.75 4.534 5.246 8.878 10.609 13.127 16.088a306.556 306.556 0 0 0 8.81 10.786c9.6 11.441 18.151 23.752 26.721 35.972a940.534 940.534 0 0 0 9.27 12.967c7.264 9.992 14.289 20.132 21.197 30.374.86 1.275.86 1.275 1.74 2.576 22.318 33.108 42.421 67.459 61.85 102.33 2.239 4.014 4.502 8.013 6.789 12a605.905 605.905 0 0 1 18.148 34.117c2.017 4.096 4.146 8.103 6.348 12.102 5.347 9.818 9.854 20.061 14.513 30.218 1.969 4.282 3.974 8.545 5.999 12.802 41.307 86.997 70.659 179.269 129.613 544.855l.082 2.24c2.11 57.739 1.509 115.75.543 173.51l-.046 3.09c-.485 30.612-2.653 61.065-5.886 91.499-.261 2.465-.52 4.93-.778 7.396-8.893 84.558-24.226 167.32-60.915 300.265l-.823 2.626c-5.317 16.964-10.67 33.9-17.263 50.42-1.414 3.567-2.693 7.17-3.946 10.795-3.31 9.555-7.062 18.86-11.03 28.159l-2.052 4.837a6258.266 6258.266 0 0 1-5.649 13.265c-1.296 3.036-2.59 6.073-3.884 9.11-2.76 6.473-5.524 12.943-8.29 19.413l-1.322 3.093c-7.852 18.372-15.862 36.664-24.553 54.657l-.894 1.851c-5.223 10.79-10.793 21.356-16.646 31.818a1770.844 1770.844 0 0 0-5.46 9.882 7128.537 7128.537 0 0 1-11.217 20.32l-2.792 5.05c-6.59 11.911-13.311 23.737-20.242 35.454l-1.818 3.077c-10.018 16.836-20.437 33.386-31.348 49.658a4309.817 4309.817 0 0 0-5.31 7.94 3024.542 3024.542 0 0 1-17.434 25.817l-1.551 2.274c-5.669 8.274-11.558 16.387-17.476 24.484l-1.788 2.457c-6.837 9.394-13.739 18.643-21.212 27.543-1.46 1.79-2.918 3.582-4.375 5.375-4.675 5.714-9.442 11.347-14.222 16.972a2431.037 2431.037 0 0 0-4.126 4.876 3123.495 3123.495 0 0 1-17.234 20.23c-2.045 2.38-4.083 4.767-6.117 7.156-4.63 5.433-9.283 10.822-14.114 16.079a223.046 223.046 0 0 0-9.5 11.062c-3.041 3.769-6.183 7.24-9.66 10.605-1.66 1.653-3.188 3.368-4.715 5.145-9.167 10.578-18.932 20.591-28.812 30.5l-2.665 2.678c-4.435 4.426-8.938 8.689-13.691 12.771-2.551 2.237-4.898 4.623-7.269 7.051-3.636 3.685-7.346 7.207-11.285 10.566-2.328 2.033-4.586 4.127-6.844 6.237-5.328 4.975-10.75 9.73-16.437 14.295-3.483 2.852-6.862 5.81-10.247 8.777a360.606 360.606 0 0 1-16.353 13.465c-4.44 3.443-8.8 6.973-13.146 10.535-6.23 5.093-12.567 10.027-18.977 14.892a659.578 659.578 0 0 0-11.412 8.84c-21.452 17.036-44.1 32.375-67.134 47.176-2.824 1.82-5.64 3.653-8.454 5.487-32.902 21.352-67.196 40.575-102.211 58.23l-3.394 1.713c-20.786 10.425-42.073 19.527-63.606 28.287l-2.501 1.02c-73.094 29.804-151.867 53.027-230.499 61.98l-2.645.303c-7.158.816-14.318 1.606-21.48 2.385l-3.016.33c-10.965 1.191-21.885 2.257-32.916 2.569-4.001.064-4.001.064-7.713 1.365-3.114 1.464-6.267 1.778-9.648 2.153l-2.26.255c-9.527.981-19.06.949-28.629.958l-6.348.03c-5.792.027-11.584.042-17.377.055-6.3.015-12.6.042-18.9.067-12.457.048-24.914.084-37.372.116-10.323.027-20.647.058-30.97.091-81.502.264-163.004.38-430.785.396-25.878-.009-51.756-.014-77.634-.018h-2.723a3191054.345 3191054.345 0 0 0-84.726-.013c-54.952-.01-109.905-.025-164.858-.042l3.76 1.242 4.925 1.634 2.473.816c5.38 1.787 10.64 3.702 15.807 6.042l2.188.968c2.266 1.006 4.526 2.026 6.784 3.048l2.379 1.069c28.063 12.622 53.733 28.153 78.684 46.181l2.449 1.762a581.612 581.612 0 0 1 30.832 23.819c2.412 1.991 4.849 3.952 7.282 5.919 10.947 8.978 21.51 18.374 31.857 28.034a577.514 577.514 0 0 0 4.717 4.321 555.99 555.99 0 0 1 18.238 17.395l1.982 1.968a225.925 225.925 0 0 1 11.018 11.911c2.274 2.618 4.636 5.146 7 7.684 27.784 30.189 50.283 65.707 70.625 101.187l1.572 2.72c10.101 17.6 18.23 35.965 26.257 54.569 1.232 2.853 2.47 5.705 3.707 8.556 11.233 25.888 22.273 51.837 32.464 78.155l.845 2.18a2377.112 2377.112 0 0 1 12.27 32.434l1.761 4.74c17.388 46.716 32.584 94.401 45.124 142.646l1.778 6.831.957 3.68c1.691 6.496 3.383 12.993 5.078 19.489l.518 1.99c18.233 69.863 38.55 139.977 70.626 204.895a3631.09 3631.09 0 0 1 3.529 7.18c2.348 4.785 4.708 9.563 7.074 14.338.942 1.903 1.881 3.807 2.818 5.713a438.443 438.443 0 0 0 20.26 36.656c2.59 4.236 5.097 8.523 7.591 12.816 1.822 3.267 1.822 3.267 4.771 5.412a116.915 116.915 0 0 1 2.375 5.063c3.783 7.789 8.934 14.38 14.252 21.178a354.966 354.966 0 0 1 3.389 4.427c12.43 16.41 27.646 31.83 43.984 44.332l3.035 2.48c17.211 14.03 36.186 26.697 56.754 35.165a99.404 99.404 0 0 1 7.836 3.73c25.886 13.026 55.034 20.107 83.218 26.244 1.98.432 3.96.866 5.94 1.304 1.86.41 3.722.811 5.587 1.203 5.475 1.2 10.34 2.884 15.414 5.28 2.204.792 2.204.792 4.344-.001 2.395-1.797 3.185-3.435 4.43-6.155l1.4-2.994 1.48-3.256c1.067-2.285 2.136-4.569 3.207-6.852l1.67-3.579c2.686-5.69 5.49-11.32 8.31-16.944l1.665-3.32a1210.848 1210.848 0 0 1 13.237-25.54c1.407-2.641 2.807-5.286 4.206-7.932 7.472-14.13 15.066-28.17 22.986-42.056 3.669-6.437 7.255-12.92 10.843-19.402a2361.946 2361.946 0 0 1 17.814-31.546c2.793-4.866 5.574-9.738 8.356-14.61l3.06-5.354c3.435-6.01 6.867-12.02 10.294-18.033 16.748-29.38 33.8-58.583 51.417-87.452a1438.51 1438.51 0 0 0 15.05-25.29c7.302-12.542 14.85-24.908 22.609-37.175 2.485-3.941 4.946-7.898 7.408-11.854 8.362-13.428 16.863-26.764 25.43-40.061l1.71-2.655c13.763-21.338 27.935-42.401 42.29-63.345l1.462-2.136c7.064-10.322 14.204-20.59 21.354-30.852 2.767-3.971 5.524-7.948 8.274-11.93 7.88-11.398 15.912-22.654 24.188-33.767 2.94-3.951 5.862-7.914 8.784-11.877l1.761-2.386c3.908-5.305 7.77-10.64 11.614-15.99 6.426-8.93 13.024-17.727 19.647-26.512 1.923-2.56 3.835-5.128 5.744-7.698 6.32-8.5 12.732-16.875 19.465-25.052 4.264-5.198 8.313-10.535 12.322-15.93 7.831-10.53 16.04-20.745 24.385-30.87l4.5-5.5 2.258-2.758c1.476-1.805 2.95-3.612 4.422-5.422 4.52-5.548 9.103-11.036 13.738-16.488 2.86-3.37 5.674-6.772 8.457-10.207 4.641-5.7 9.458-11.24 14.285-16.781a1457.74 1457.74 0 0 0 9.59-11.157 497.967 497.967 0 0 1 10.438-11.874 207.395 207.395 0 0 0 8.5-10c4.906-6.07 10.242-11.703 15.593-17.38a281.42 281.42 0 0 0 8.39-9.355c3.03-3.443 6.163-6.792 9.282-10.154a643.424 643.424 0 0 0 9.172-10.111c3.785-4.231 7.752-8.237 11.82-12.196 2.058-2.107 3.973-4.243 5.887-6.476 3.505-4.041 7.285-7.661 11.23-11.266 5.429-5.017 10.743-10.117 15.938-15.375 4.128-4.174 8.295-8.199 12.777-11.996 1.827-1.595 3.524-3.274 5.223-5.004a115.074 115.074 0 0 1 7-6.563c4.105-3.535 8.05-7.23 12-10.937 4.48-4.2 8.969-8.367 13.625-12.371 2.263-1.966 4.472-3.986 6.688-6.004 3.462-3.13 6.994-6.13 10.624-9.063A228.107 228.107 0 0 0 6485.5 3965c4.806-4.414 9.771-8.564 14.85-12.659a725.361 725.361 0 0 0 5.666-4.665c7.911-6.562 15.87-13.015 24.067-19.22 2.258-1.715 4.508-3.443 6.757-5.17A2398.96 2398.96 0 0 1 6553 3911l2.124-1.603c35.26-26.44 73.22-50.207 112.883-69.427 2.078-1.012 4.147-2.042 6.216-3.072 30.958-15.224 63.724-26.023 97.465-32.96l2.493-.518c39.253-8.143 39.253-8.143 55.819-8.42l3.248-.062c68.64-1.113 134.493 11.615 186.412 58.94a326.632 326.632 0 0 0 6.465 5.684c14.939 13.072 24.493 29.153 33.875 46.438l1.02 1.86c11.623 21.424 18.793 44.411 23.98 68.14l.746 3.244c2.727 12.537 3.962 25.269 5.379 38.006l.8 7.031c1.672 14.736 3.197 29.356 3.633 44.184.066 2.174.144 4.348.223 6.521.698 21.36-.98 42.446-3.531 63.639l-.41 3.443A2724.223 2724.223 0 0 1 7089 4165l-.311 2.453c-4.461 34.868-15.425 68.6-27.03 101.67-.606 1.725-1.205 3.453-1.805 5.182-15.608 44.719-37.574 88.583-61.647 129.25a525.298 525.298 0 0 0-7.77 13.632c-10.13 18.167-21.721 35.425-33.325 52.668-2.088 3.11-4.162 6.228-6.233 9.348a732.52 732.52 0 0 1-10.629 15.484l-1.812 2.579c-1.222 1.74-2.445 3.478-3.668 5.216a2575.193 2575.193 0 0 0-4.989 7.127c-5.65 8.08-11.422 16.02-17.511 23.774a1754.423 1754.423 0 0 0-4.02 5.144A1054.983 1054.983 0 0 1 6891 4560a56807.13 56807.13 0 0 0-4.375 5.375c-8.04 9.824-16.313 19.453-24.586 29.082-2.033 2.367-4.058 4.74-6.078 7.117a635.953 635.953 0 0 1-17.512 19.762 301.96 301.96 0 0 0-5.949 6.664c-4.722 5.435-9.609 10.718-14.5 16l-1.753 1.894c-6.63 7.152-13.305 14.255-20.185 21.168l-1.499 1.514a157.54 157.54 0 0 1-8.41 7.764c-4.436 3.844-8.542 7.974-12.653 12.16-4.774 4.86-9.602 9.546-14.768 13.99-2.007 1.75-3.883 3.595-5.732 5.51-3.104 3.146-6.319 6.073-9.668 8.953-2.995 2.629-5.912 5.336-8.832 8.047-4.766 4.415-9.568 8.77-14.5 13l-1.47 1.263a5320.944 5320.944 0 0 1-8.803 7.546c-2.469 2.111-4.932 4.229-7.391 6.351-5.784 4.988-11.59 9.919-17.586 14.653a592.694 592.694 0 0 0-6.5 5.25c-6.844 5.602-13.713 11.123-20.824 16.386-4.512 3.344-8.964 6.767-13.426 10.176-28.823 21.977-28.823 21.977-43.62 32.31-2.754 1.923-5.5 3.857-8.236 5.805-10.647 7.577-21.447 14.903-32.332 22.135l-2.589 1.722c-21.718 14.442-43.703 28.24-66.223 41.403l-3.363 1.975c-14.99 8.796-30.134 17.169-45.637 25.025l-2.159 1.094a1233.44 1233.44 0 0 1-9.607 4.8 860.837 860.837 0 0 0-9.53 4.805c-72.698 36.979-151.009 64.416-373.704 108.301-1.775 4.813-2.682 9.479-3.443 14.522l-.811 5.167-.426 2.746c-3.429 21.993-7.506 43.826-11.843 65.655-.935 4.716-1.862 9.432-2.791 14.149-1.692 8.58-3.391 17.16-5.094 25.739-1.16 5.839-2.315 11.678-3.467 17.519-9.156 46.424-18.759 92.75-28.6 139.034l-1.553 7.307a7077.15 7077.15 0 0 1-28.814 129.544c-2.254 9.707-4.493 19.417-6.722 29.13a6177.6 6177.6 0 0 1-26.964 112.58c-1.123 4.504-2.242 9.009-3.36 13.514-22.192 89.499-44.856 178.92-83.275 316.437-.864 3.05-1.726 6.102-2.589 9.153a25480.06 25480.06 0 0 1-11.976 42.213c-.876 3.078-1.75 6.157-2.623 9.236a2907.837 2907.837 0 0 1-24.184 80.705 4086.638 4086.638 0 0 0-15.595 50.656c-13.85 45.981-28.237 91.799-42.78 137.564-1.056 3.323-2.11 6.646-3.163 9.97-9.64 30.397-19.6 60.685-29.673 90.942l-2.758 8.295a4338.468 4338.468 0 0 1-23.203 67.953l-.874 2.49-.86 2.454c-2.831 8.078-5.601 16.176-8.36 24.279-19.688 57.795-40.395 115.24-61.652 172.474a3745.633 3745.633 0 0 0-7.238 19.675c-7.201 19.723-14.589 39.375-21.977 59.028-1.902 5.062-3.803 10.126-5.698 15.19-3.976 10.621-7.964 21.235-12.072 31.805l-1.477 3.81a7850 7850 0 0 1-9.327 23.9l-1.122 2.864c-1.538 3.926-3.076 7.852-4.616 11.778-4.017 10.243-8.023 20.49-11.946 30.77l-.938 2.456-.928 2.432c-7.132 18.69-14.608 37.219-22.256 55.703a3027.472 3027.472 0 0 0-9.353 22.967 5856.834 5856.834 0 0 1-17.974 43.945l-1.21 2.928a12690.93 12690.93 0 0 1-13.017 31.377l-4.398 10.57-1.083 2.602c-4.211 10.133-8.334 20.288-12.292 30.523-10.47 26.993-21.905 53.64-34 79.943-4.908 10.677-9.664 21.416-14.375 32.182a639549.432 639549.432 0 0 1-5.747 13.131 8919.124 8919.124 0 0 1-12.878 29.244l-1.184 2.679a25223.866 25223.866 0 0 1-24.872 56.042 9010.927 9010.927 0 0 0-7.928 17.88c-7.521 17-15.17 33.922-23.056 50.756-1.64 3.509-3.268 7.022-4.894 10.538-5.436 11.752-10.92 23.478-16.534 35.147-3.558 7.413-7.022 14.868-10.47 22.333a1613.66 1613.66 0 0 1-15.403 32.377 785.144 785.144 0 0 0-9.076 19.33c-6.089 13.408-12.564 26.59-19.208 39.73a2145.018 2145.018 0 0 0-24.25 49.58c-10.34 21.857-21.22 43.449-32.041 65.07-2.784 5.562-5.564 11.126-8.343 16.69-2.174 4.352-4.35 8.704-6.528 13.055-1.025 2.05-2.05 4.1-3.073 6.15-6.087 12.185-12.292 24.297-18.676 36.33-2.744 5.198-5.421 10.43-8.11 15.658a3238.898 3238.898 0 0 1-16.557 31.811c-2.828 5.354-5.624 10.724-8.422 16.094a4802.5 4802.5 0 0 1-12.075 23.022 2255.686 2255.686 0 0 0-9 17.304 1569.358 1569.358 0 0 1-19.414 36.414 1451.341 1451.341 0 0 0-4.69 8.65c-5.295 9.83-10.651 19.608-16.196 29.297-4.956 8.68-9.626 17.485-14.188 26.376-5.789 11.282-11.713 22.475-17.852 33.572-1.728 3.124-3.45 6.252-5.17 9.38-6.565 11.898-13.253 23.707-20.14 35.42-5.078 8.66-9.955 17.426-14.812 26.212-5.195 9.391-10.493 18.718-15.84 28.024-2.792 4.865-5.572 9.737-8.354 14.608l-5.128 8.975-2.077 3.633-5.082 8.895a266882.027 266882.027 0 0 0-6.977 12.208c-3.021 5.286-6.042 10.573-9.056 15.863-7.185 12.606-14.403 25.19-21.733 37.713-3.617 6.18-7.202 12.379-10.768 18.589a1709.915 1709.915 0 0 1-18.68 31.735 1858.01 1858.01 0 0 0-13.245 22.375c-10.628 18.206-21.588 36.19-32.782 54.054-23.953 37.874-23.953 37.874-46.608 76.529-2.802 4.942-6.002 9.64-9.13 14.379A1284.659 1284.659 0 0 0 4766 8371c-4.32 6.883-8.75 13.692-13.188 20.5a1669.571 1669.571 0 0 0-14.425 22.553c-4.22 6.701-8.511 13.353-12.824 19.994-2.27 3.493-4.51 7.003-6.75 10.515-4.022 6.285-8.167 12.486-12.313 18.688-5.44 8.138-10.84 16.3-16.188 24.5a11879.347 11879.347 0 0 1-22.092 33.722l-3.741 5.7c-6.363 9.703-12.788 19.344-19.479 28.824-6.702 9.497-13.118 19.166-19.48 28.892-3.147 4.808-6.306 9.609-9.465 14.409l-1.863 2.831c-20.015 30.396-20.015 30.396-29.817 42.798-3.387 4.384-6.548 8.917-9.722 13.456-2.501 3.575-5.017 7.135-7.602 10.65-6.661 9.06-13.052 18.288-19.315 27.627-.9 1.341-1.802 2.681-2.705 4.02-1.28 1.899-2.551 3.802-3.82 5.708l-1.154 1.706c-3.446 5.214-6.642 10.468-6.057 16.907 5.398-.387 8.317-2.466 12.188-6 1.154-1.015 2.309-2.03 3.464-3.043l1.723-1.529c2.244-1.972 4.554-3.859 6.875-5.74a2752.77 2752.77 0 0 0 14.313-11.75c4.513-3.725 9.034-7.434 13.624-11.063 4.652-3.693 9.14-7.566 13.633-11.447a308.155 308.155 0 0 1 10.43-8.615 180.441 180.441 0 0 0 9.688-8.25c4.664-4.246 9.493-8.243 14.395-12.21 3.36-2.728 6.7-5.478 10.042-8.228l2.212-1.82c4.996-4.118 9.952-8.28 14.883-12.475a587.694 587.694 0 0 1 9.967-8.267c5.422-4.414 10.721-8.96 16.02-13.52 3.354-2.885 6.726-5.75 10.105-8.605l1.615-1.365 6.427-5.427a3734.164 3734.164 0 0 0 23.634-20.134c1.742-1.495 3.486-2.988 5.23-4.48 15.528-13.236 15.528-13.236 30.782-26.782 3.271-2.97 6.62-5.793 10.063-8.563 4.814-3.89 9.338-8.018 13.853-12.247a180.393 180.393 0 0 1 10.271-8.878c5.709-4.581 11.006-9.55 16.34-14.554 3.04-2.85 6.146-5.613 9.301-8.336 2.333-2.03 4.627-4.1 6.922-6.172a683.28 683.28 0 0 1 9-8c4.717-4.11 9.356-8.307 14-12.5l5-4.5 2.508-2.258c1.64-1.475 3.28-2.949 4.922-4.422 5.065-4.547 10.098-9.13 15.11-13.736 3.116-2.86 6.248-5.699 9.398-8.522 4.456-3.999 8.856-8.057 13.25-12.125a766.972 766.972 0 0 1 9.687-8.812c4.883-4.376 9.67-8.85 14.457-13.332 3.869-3.62 7.756-7.219 11.668-10.793 4.624-4.23 9.226-8.48 13.813-12.75l1.85-1.717a286.78 286.78 0 0 0 8.786-8.517c3.043-3.067 6.238-5.903 9.507-8.725 3.499-3.065 6.858-6.277 10.231-9.478 5.079-4.8 10.168-9.585 15.313-14.313 11.312-10.416 22.565-20.877 33.328-31.865 2.828-2.87 5.692-5.614 8.762-8.225 6.306-5.444 12.056-11.49 17.91-17.41 2.362-2.388 4.727-4.773 7.094-7.156l1.588-1.614a154.763 154.763 0 0 1 8.722-8.134c4.206-3.64 8.126-7.516 12.033-11.471l2.196-2.207c2.291-2.303 4.58-4.61 6.867-6.918 3.018-3.045 6.04-6.086 9.063-9.125l2.052-2.078a204.934 204.934 0 0 1 12.066-11.207c4.345-3.799 8.292-7.935 12.044-12.316 3.704-4.25 7.618-8.245 11.619-12.215a5012.428 5012.428 0 0 1 7.128-7.105 6936.05 6936.05 0 0 0 7.694-7.671c6.364-6.351 12.734-12.696 19.104-19.042 5.391-5.372 10.781-10.746 16.168-16.123 2.517-2.51 5.036-5.018 7.556-7.524l4.662-4.653 2.1-2.085a217.476 217.476 0 0 0 11.26-12.148c1.863-2.145 3.833-4.155 5.859-6.145l2.297-2.274 4.656-4.578c4.169-4.126 8.139-8.33 11.961-12.777 2.918-3.298 6.069-6.353 9.211-9.434 4.433-4.385 8.743-8.778 12.766-13.547 2.754-3.102 5.737-5.976 8.688-8.888 2.627-2.605 5.146-5.25 7.546-8.065 3.282-3.85 6.853-7.381 10.45-10.931 3.25-3.223 6.274-6.562 9.241-10.042 2.983-3.343 6.213-6.438 9.399-9.586 2.679-2.713 5.156-5.549 7.633-8.445 2.724-3.06 5.666-5.893 8.582-8.77 2.635-2.672 5.073-5.48 7.515-8.328 1.662-1.878 3.391-3.641 5.18-5.398a115.074 115.074 0 0 0 6.563-7c3.498-4.06 7.147-7.967 10.812-11.875a863.27 863.27 0 0 0 13.852-15.102 898.62 898.62 0 0 1 8.273-9.023c5.718-6.179 11.394-12.395 16.95-18.72 6.734-7.611 13.929-14.711 21.184-21.818 6.396-6.274 12.405-12.593 17.989-19.61 2.186-2.739 4.485-5.294 6.877-7.852 4.04-4.394 7.846-8.921 11.598-13.563 4.19-5.123 8.529-10.12 12.85-15.134a5401.75 5401.75 0 0 0 7.614-8.865l1.508-1.758c3.78-4.412 7.537-8.846 11.286-13.286 3.865-4.574 7.762-9.12 11.664-13.664 3.343-3.896 6.668-7.807 9.98-11.73a2994.832 2994.832 0 0 1 15.984-18.734c3.005-3.5 6.007-7.005 9.01-10.51 2.533-2.957 5.07-5.911 7.611-8.861 4.591-5.333 9.153-10.677 13.583-16.145 3.555-4.382 7.28-8.567 11.078-12.738 2.235-2.514 4.368-5.085 6.484-7.7 4.16-5.139 8.467-10.135 12.81-15.121 3.986-4.581 7.928-9.198 11.841-13.842 3.384-4.013 6.8-7.996 10.224-11.974 3.493-4.061 6.94-8.15 10.313-12.313 4.142-5.104 8.443-10.058 12.763-15.013 3.922-4.509 7.73-9.096 11.49-13.74 2.722-3.312 5.51-6.562 8.309-9.809 5.1-5.921 10.077-11.93 15-18a8345.55 8345.55 0 0 1 4.25-5.188l2.23-2.73c1.895-2.318 3.795-4.632 5.696-6.945 5.465-6.666 10.806-13.354 15.812-20.375 3.718-5.105 7.675-10.024 11.597-14.972 1.375-1.74 2.742-3.484 4.106-5.231a1237.908 1237.908 0 0 1 16.473-20.598A800.173 800.173 0 0 0 5738.5 7513c4.482-5.74 9.06-11.397 13.664-17.04A801.18 801.18 0 0 0 5762.5 7483c4.482-5.74 9.06-11.397 13.664-17.04A801.18 801.18 0 0 0 5786.5 7453a892.14 892.14 0 0 1 12-15c4.528-5.55 8.995-11.14 13.406-16.781 3.336-4.264 6.707-8.497 10.094-12.719a2215.568 2215.568 0 0 0 15.654-19.784c1.327-1.692 2.656-3.382 3.987-5.071 7.492-9.518 14.928-19.08 22.359-28.645 7.432-9.567 14.868-19.13 22.363-28.648 1.773-2.252 3.541-4.507 5.305-6.766 4.901-6.27 9.86-12.485 14.895-18.649 5.139-6.297 10.132-12.683 15.063-19.145 2.69-3.508 5.409-6.992 8.124-10.48l1.788-2.297c2.43-3.123 4.862-6.245 7.294-9.368 6.538-8.396 13.063-16.8 19.543-25.24 3.796-4.936 7.628-9.842 11.453-14.755 3.404-4.373 6.797-8.756 10.172-13.152 5.695-7.416 11.44-14.792 17.186-22.17 3.522-4.524 7.041-9.05 10.56-13.577 2.928-3.764 5.857-7.527 8.79-11.288 7.34-9.42 14.627-18.878 21.868-28.374 2.103-2.755 4.21-5.507 6.316-8.26 6.051-7.907 12.09-15.825 18.123-23.748 3.408-4.476 6.82-8.95 10.239-13.419 7.015-9.173 13.95-18.393 20.77-27.711 4.52-6.153 9.187-12.178 13.898-18.184 4.185-5.352 8.242-10.785 12.25-16.269a679.897 679.897 0 0 1 14-18.5c6.592-8.41 12.944-16.982 19.25-25.609 2.906-3.971 5.829-7.93 8.75-11.891 3.552-4.817 7.1-9.636 10.64-14.46 7.716-10.511 15.553-20.906 23.594-31.169 11.31-14.45 22.15-29.219 32.876-44.106 8.666-12.018 17.49-23.92 26.39-35.765 10.407-13.858 20.694-27.77 30.593-41.996 5.215-7.482 10.628-14.778 16.22-21.984 6.528-8.422 12.79-17.013 19-25.672 2.782-3.873 5.58-7.735 8.374-11.598 3.456-4.78 6.9-9.566 10.317-14.373a748.089 748.089 0 0 1 12.465-17.006c12.63-16.776 24.933-33.801 37.012-50.977 3.634-5.16 7.316-10.283 11.019-15.394 6.24-8.615 12.382-17.298 18.5-26 9.918-14.108 19.917-28.153 30.185-42.009 8.796-11.874 17.327-23.927 25.647-36.14a612.467 612.467 0 0 1 14.918-20.976c5.805-7.8 11.33-15.763 16.78-23.814 7.802-11.526 15.862-22.856 24.033-34.123a816.976 816.976 0 0 0 13.214-18.774c3.6-5.269 7.246-10.503 10.91-15.726a9028.943 9028.943 0 0 0 21.259-30.484c2.078-2.988 4.157-5.975 6.238-8.962a149389.44 149389.44 0 0 0 6.16-8.847c3.36-4.828 6.703-9.664 10.02-14.52 4.823-7.06 9.783-14.008 14.807-20.926a712.607 712.607 0 0 0 11.458-16.315c4.046-5.924 8.143-11.812 12.246-17.697a3600.42 3600.42 0 0 0 19.656-28.536c10.763-15.76 21.681-31.413 32.594-47.069A4339.205 4339.205 0 0 0 6714 6196c18.552-27.207 37.448-54.176 56.459-81.063 2.998-4.242 5.994-8.485 8.986-12.731 1.034-1.468 2.07-2.934 3.106-4.4 7.828-11.074 15.484-22.256 23.074-33.493 6.9-10.218 13.853-20.388 21.024-30.418 1.435-2.013 2.86-4.033 4.28-6.055a1705.984 1705.984 0 0 1 15.508-21.715c5.144-7.083 10.12-14.268 15.037-21.509 2.797-4.112 5.63-8.18 8.588-12.178 3.369-4.567 6.502-9.266 9.626-14 5.677-8.595 11.669-16.932 17.731-25.257 8.047-11.102 15.827-22.398 23.65-33.659a3255.165 3255.165 0 0 1 16.5-23.498 2885.84 2885.84 0 0 0 4.38-6.215 1738.19 1738.19 0 0 1 15.489-21.684 691.67 691.67 0 0 0 13.124-18.75c4.51-6.655 9.193-13.132 14.06-19.53 4.394-5.802 8.51-11.771 12.605-17.786 7.407-10.875 15.111-21.54 22.845-32.183 3.93-5.434 7.73-10.948 11.49-16.501a424.403 424.403 0 0 1 13.919-19.317c3.844-5.075 7.455-10.284 11.019-15.558 4.064-6.014 8.23-11.91 12.625-17.688 5.366-7.057 10.395-14.304 15.383-21.631 9.788-14.304 19.911-28.368 30.096-42.39 8.023-11.051 15.906-22.193 23.72-33.392a2179.597 2179.597 0 0 1 21.82-30.669A1375.11 1375.11 0 0 0 7171 5547.5c5.718-8.128 11.528-16.187 17.359-24.234 2.717-3.752 5.429-7.51 8.141-11.266l3.25-4.5 1.625-2.25 6.5-9 3.252-4.504a5049.94 5049.94 0 0 1 8.088-11.176 1702.728 1702.728 0 0 0 18.55-26.102c4.43-6.345 8.938-12.63 13.483-18.892 3.607-4.975 7.161-9.983 10.69-15.014 4.828-6.874 9.781-13.65 14.778-20.403 5.62-7.598 11.154-15.256 16.675-22.925 3.24-4.5 6.49-8.992 9.736-13.486 2.699-3.736 5.396-7.473 8.088-11.213a2518.042 2518.042 0 0 1 31.347-42.597c6.393-8.498 12.65-17.085 18.85-25.725 2.67-3.72 5.346-7.436 8.025-11.15l1.612-2.234c4.6-6.367 9.262-12.688 13.931-19.005 3.38-4.58 6.726-9.181 10.02-13.824 5.619-7.916 11.397-15.713 17.168-23.518 1.834-2.484 3.662-4.973 5.488-7.462 5.073-6.912 10.148-13.812 15.407-20.583 5.605-7.236 10.93-14.67 16.264-22.106 3.253-4.532 6.524-9.05 9.793-13.571a2700.7 2700.7 0 0 0 8.2-11.4c5.337-7.452 10.742-14.805 16.453-21.974 5.677-7.157 11.031-14.554 16.424-21.926 1.778-2.426 3.562-4.846 5.35-7.265 5.119-6.927 10.225-13.86 15.244-20.86 5.923-8.26 12.012-16.375 18.192-24.443 6.204-8.108 12.266-16.314 18.3-24.55 3.48-4.747 6.978-9.483 10.472-14.222 2.897-3.93 5.79-7.861 8.675-11.8 9.38-12.792 18.973-25.415 28.627-38.002 7.492-9.769 14.91-19.571 22.08-29.578 13.188-18.373 26.99-36.327 40.988-54.088 8.181-10.384 16.296-20.814 24.202-31.41a1883.93 1883.93 0 0 1 12.485-16.492 2714.163 2714.163 0 0 0 16.063-21.25 1670.962 1670.962 0 0 1 15.813-20.798c2.615-3.393 5.212-6.798 7.812-10.202a6270.398 6270.398 0 0 1 14.121-18.41c1.577-2.048 3.153-4.098 4.727-6.149 6.572-8.56 13.194-17.078 19.824-25.593 1.818-2.335 3.634-4.671 5.45-7.008 3.456-4.45 6.915-8.896 10.378-13.34l1.472-1.89a1273.437 1273.437 0 0 1 17.692-22.15 892.71 892.71 0 0 0 11.676-14.678c3.454-4.413 6.985-8.758 10.535-13.095 5.053-6.178 9.93-12.47 14.75-18.83 4.216-5.546 8.582-10.953 13-16.337 3.894-4.765 7.659-9.615 11.375-14.52 4.82-6.361 9.778-12.589 14.836-18.762 3.294-4.028 6.51-8.1 9.664-12.238 9.259-12.126 19.071-23.821 28.777-35.59 4.089-4.958 8.157-9.933 12.223-14.91l4.5-5.5 2.25-2.75 9.02-11.023 4.304-5.266c2.307-2.822 4.615-5.642 6.926-8.461l1.583-1.932c6.495-7.918 13.017-15.808 19.655-23.607 3.306-3.894 6.5-7.868 9.672-11.871 2.922-3.621 5.938-7.16 8.953-10.703a633.122 633.122 0 0 0 8.637-10.387c3.749-4.605 7.57-9.142 11.416-13.666a618.182 618.182 0 0 0 8.521-10.271c3.958-4.864 8.028-9.622 12.121-14.371a490.782 490.782 0 0 0 8.942-10.692c4.39-5.405 8.92-10.683 13.46-15.96 2.866-3.332 5.707-6.682 8.54-10.04a2977.47 2977.47 0 0 1 15.988-18.738c1.495-1.742 2.988-3.486 4.48-5.23 20.121-23.516 20.121-23.516 29.837-34.122 1.926-2.115 3.82-4.25 5.695-6.41 2.788-3.209 5.635-6.36 8.5-9.5 3.456-3.79 6.865-7.61 10.23-11.48 4.309-4.917 8.717-9.746 13.098-14.598a1033.01 1033.01 0 0 0 11.86-13.36c2.847-3.24 5.745-6.434 8.636-9.636a465.707 465.707 0 0 0 5.489-6.239c3.63-4.17 7.39-8.218 11.148-12.273 3-3.238 5.973-6.497 8.914-9.789 8.076-9.003 16.285-17.9 24.91-26.379 1.78-1.812 3.437-3.693 5.09-5.621 2.741-3.192 5.632-6.168 8.625-9.125 2.89-2.855 5.685-5.715 8.313-8.813 3.696-4.329 7.736-8.293 11.805-12.268 2.682-2.64 5.239-5.311 7.66-8.192 6.005-6.892 12.596-13.245 19.062-19.7l4.352-4.354c3.03-3.032 6.062-6.062 9.095-9.09 3.87-3.866 7.737-7.735 11.603-11.607 2.991-2.995 5.985-5.987 8.98-8.98l4.275-4.277c13.46-13.478 13.46-13.478 19.326-18.41 2.663-2.28 5.086-4.799 7.529-7.309 3.813-3.918 7.764-7.576 11.898-11.152 3.624-3.187 7.105-6.523 10.602-9.848 4.802-4.566 9.65-9.046 14.656-13.388 2.603-2.276 5.126-4.63 7.656-6.987 3.775-3.493 7.614-6.84 11.626-10.063 4.184-3.365 8.145-6.894 12.062-10.562a253.328 253.328 0 0 1 14.566-12.598c3.483-2.852 6.862-5.81 10.246-8.777a353.401 353.401 0 0 1 16.282-13.392c4.676-3.628 9.233-7.385 13.781-11.17 7.317-6.068 14.823-11.818 22.47-17.462a875.462 875.462 0 0 0 6.901-5.19c68.34-51.764 145.268-99.292 230.254-116.411l3.695-.816c11.461-2.402 22.741-2.645 34.424-2.575 3.179.016 6.356 0 9.535-.02 17.037-.017 33.452 1.765 49.971 6.036l2.99.767c27.859 7.378 53.526 18.428 77.385 34.608l1.996 1.34c8.279 5.595 15.72 11.808 23.004 18.66a441.913 441.913 0 0 0 3.875 3.375c1.378 1.205 2.752 2.414 4.125 3.625l1.461 1.288c7.608 6.744 14.288 13.662 20.539 21.712a897.147 897.147 0 0 0 2.762 3.39c25.122 30.778 43.047 63.165 56.238 100.61.315.89.63 1.78.953 2.698 5.452 15.9 7.844 32.688 10.629 49.216l.39 2.277c1.614 9.779 2.189 19.497 2.231 29.399l.017 3.23c.01 2.237.016 4.475.02 6.713.01 3.392.041 6.784.073 10.176l.015 6.568.038 3.022c-.02 6.355-.952 11.979-2.656 18.102-.935 3.422-1.41 6.773-1.897 10.287-8.1 51.547-27.785 102.023-56.813 145.312l-1.304 1.947c-11.327 16.748-24.723 31.62-40.696 44.053l-1.696 1.337c-9.186 7.202-18.602 12.983-29.304 17.663l-2.322 1.018c-6.074 2.55-12.114 4.25-18.553 5.607l-2.985.646c-7.636 1.581-15.244 2.551-23.02 3.097-4.531.153-4.531.153-8.12 2.632-2.645.45-2.645.45-5.813.688l-3.144.261c-2.878.048-5.245-.347-8.043-.949-2.725.377-2.725.377-5 1l-1-3-6 4-2-1v-3l-3-1v3h-3l-1-2c-2.782-.336-5.52-.564-8.313-.75-26.59-2.259-53.018-8.913-75.687-23.25l-3.21-2.023c-5.012-3.327-5.012-3.327-6.79-4.977v-3l-1.627-.2c-3.372-1.137-5.71-3.29-8.346-5.597l-1.821-1.58c-8.339-7.356-16.136-15.291-23.967-23.179-2.69-2.708-5.389-5.409-8.089-8.108l-5.209-5.227-2.408-2.412c-4.146-4.18-8.148-8.434-11.98-12.904-2.758-3.184-5.662-6.231-8.553-9.293l-3.992-4.238-2.03-2.155c-1.858-1.98-3.706-3.969-5.548-5.962-7.254-7.834-14.66-15.504-22.18-23.083l-2.579-2.617c-8.398-8.411-16.997-16.108-27.671-21.445l-3.414-1.832c-23.163-12.267-50.845-20.58-77.086-21.793l-2.212-.11A736.942 736.942 0 0 0 8511 4167l-2.945-.129c-28.588-.625-56.798 6.329-82.743 18.11-2.401 1.058-4.827 2.018-7.273 2.968-5.048 2.003-9.858 4.34-14.664 6.864l-2.693 1.413c-15.876 8.486-31.015 18.355-45.682 28.774l-2.926 1.98c-20.824 14.104-40.357 30.099-59.36 46.545a708.3 708.3 0 0 1-5.171 4.4c-6.964 5.893-13.717 11.962-20.36 18.215-3.017 2.841-6.039 5.658-9.183 8.36-5.833 5.027-11.388 10.366-17.003 15.633a1400.574 1400.574 0 0 1-5.845 5.43c-6.668 6.173-13.242 12.408-19.59 18.912a134.574 134.574 0 0 1-8.312 7.783c-5.002 4.328-9.648 8.994-14.313 13.68l-2.603 2.591c-4.44 4.447-8.718 8.964-12.812 13.731-2.792 3.192-5.861 6.097-8.897 9.052a126.183 126.183 0 0 0-5.719 6.282c-5.31 6.125-11.17 11.726-16.936 17.415-5.34 5.275-10.592 10.559-15.472 16.27-3.019 3.468-6.366 6.604-9.654 9.815-2.818 2.814-5.404 5.809-8.01 8.818-3.63 4.133-7.446 8.095-11.229 12.088a395.905 395.905 0 0 0-11.006 12.17c-2.115 2.42-4.293 4.781-6.474 7.142a223.767 223.767 0 0 0-9.438 11c-4.07 5.052-8.43 9.763-12.876 14.48-4.168 4.448-8.015 9.06-11.827 13.817-2.292 2.763-4.755 5.252-7.332 7.746-1.66 1.653-3.188 3.368-4.715 5.145-3.485 4.052-7.145 7.925-10.812 11.813-4.889 5.196-9.53 10.5-13.984 16.078-2.292 2.793-4.693 5.451-7.141 8.109-4.415 4.808-8.567 9.774-12.663 14.854a767.662 767.662 0 0 1-4.626 5.626c-6.05 7.307-12.039 14.647-17.874 22.126-4.193 5.37-8.506 10.636-12.837 15.894a56807.13 56807.13 0 0 0-4.375 5.375 845.733 845.733 0 0 1-10.125 12.125 915.526 915.526 0 0 0-12.008 14.445 2963.052 2963.052 0 0 1-9.18 11.18l-1.805 2.192c-3.02 3.665-6.04 7.329-9.062 10.992-11.173 13.546-22.29 27.128-33.098 40.969a1833.245 1833.245 0 0 1-4.124 5.25c-11.315 14.33-11.315 14.33-22.223 28.972-7.053 9.756-14.498 19.168-22.112 28.487A763.575 763.575 0 0 0 7819.5 4801a863.608 863.608 0 0 1-12.063 15.063 684.602 684.602 0 0 0-14 17.757c-2.485 3.255-5.022 6.468-7.562 9.68-9.23 11.71-18.424 23.487-27 35.688-7.797 11.082-16.307 21.644-24.813 32.187-6.694 8.305-13.05 16.862-19.418 25.419a1903.197 1903.197 0 0 1-6.207 8.269c-3.843 5.122-7.64 10.279-11.437 15.437-8.144 11.062-16.388 22.027-24.839 32.856a878.854 878.854 0 0 0-12.02 15.792c-1.93 2.57-3.89 5.111-5.864 7.647-4.636 5.962-9.002 12.056-13.265 18.29-2.053 2.975-4.192 5.86-6.383 8.731-1.673 2.243-3.286 4.523-4.896 6.81-4.336 6.15-8.837 12.14-13.483 18.061-6.676 8.513-13.112 17.184-19.496 25.917-1.757 2.4-3.522 4.793-5.29 7.185-5.122 6.932-10.232 13.871-15.255 20.877a866.208 866.208 0 0 1-16.146 21.771c-9.944 12.991-19.751 26.056-28.958 39.583-7.17 10.515-14.717 20.765-22.292 30.991-7.22 9.75-14.221 19.637-21.149 29.597-6.882 9.892-13.842 19.7-21.103 29.319-9.498 12.597-18.564 25.487-27.54 38.46-4.886 7.04-9.91 13.96-15.017 20.84-9.308 12.55-18.16 25.42-27.073 38.251a3265.581 3265.581 0 0 1-16.495 23.494c-2.483 3.507-4.959 7.018-7.436 10.528l-3 4.25-1.5 2.125-4.5 6.375-1.5 2.125-3.002 4.252c-2.49 3.527-4.98 7.056-7.463 10.588a1750.059 1750.059 0 0 1-15.472 21.66 691.624 691.624 0 0 0-13.126 18.75 424.403 424.403 0 0 1-13.918 19.317c-3.844 5.075-7.455 10.284-11.019 15.558-4.007 5.927-8.105 11.744-12.438 17.438-6.336 8.332-12.312 16.9-18.28 25.498-2.916 4.196-5.85 8.38-8.782 12.564l-3.492 4.988-1.75 2.499-5.328 7.618c-2.923 4.18-5.848 8.357-8.775 12.533-1.07 1.527-2.14 3.055-3.209 4.584a1076.614 1076.614 0 0 1-17.321 24.09c-6.625 8.94-13.022 18.026-19.37 27.163-7.91 11.384-15.867 22.729-24.004 33.952-6.82 9.413-13.506 18.92-20.157 28.452a2194.209 2194.209 0 0 1-25.166 35.282c-8.002 10.998-15.823 22.111-23.573 33.288-4.765 6.87-9.588 13.7-14.42 20.523a7365.27 7365.27 0 0 0-5.926 8.39l-3.012 4.267c-2.49 3.526-4.978 7.054-7.462 10.586a2164.642 2164.642 0 0 1-17.177 24.052c-5.185 7.166-10.286 14.39-15.374 21.624-2.99 4.25-5.99 8.492-8.986 12.736-2.49 3.528-4.98 7.056-7.463 10.588a1863.06 1863.06 0 0 1-15.41 21.597c-6.42 8.856-12.686 17.815-18.945 26.785-4.05 5.793-8.136 11.56-12.217 17.33-1.476 2.09-2.948 4.183-4.42 6.276a22165.75 22165.75 0 0 1-4.489 6.377 779.13 779.13 0 0 1-7.53 10.506c-7.19 9.84-14.09 19.856-20.902 29.96-4.906 7.272-9.866 14.478-15.125 21.502-3.97 5.335-7.703 10.823-11.435 16.327-9.014 13.294-18.284 26.385-27.705 39.393-5.688 7.862-11.276 15.794-16.857 23.732-9.33 13.273-18.786 26.45-28.324 39.574-5.63 7.755-11.18 15.55-16.587 23.462-7.38 10.796-14.972 21.441-22.651 32.026a832.546 832.546 0 0 0-13.21 18.765c-8.841 12.928-17.84 25.72-27.177 38.296-5.547 7.494-10.817 15.163-16.051 22.877-5.681 8.35-11.556 16.521-17.563 24.638-5.671 7.663-11.255 15.387-16.824 23.124-1.628 2.259-3.26 4.514-4.894 6.77-5.283 7.292-10.537 14.603-15.719 21.968a1648.012 1648.012 0 0 1-12.438 17.438l-1.636 2.263c-2.721 3.76-5.448 7.516-8.18 11.268-5.478 7.535-10.849 15.12-16.059 22.843-5.345 7.914-11.053 15.498-16.881 23.06-5.387 7.013-10.432 14.2-15.378 21.528-10.891 16.02-22.228 31.743-33.761 47.306a747.956 747.956 0 0 0-17.1 24.044c-6.813 9.987-13.992 19.708-21.175 29.43-6.196 8.393-12.305 16.847-18.392 25.32l-1.31 1.82a1283.914 1283.914 0 0 0-12.069 17.035c-5.857 8.427-11.76 16.747-18.078 24.836-7.86 10.138-15.152 20.723-22.48 31.247-8.387 12.032-17.028 23.87-26.006 35.469-5.64 7.29-10.956 14.728-16.114 22.366-5.498 8.115-11.313 15.98-17.168 23.839-2.983 4.013-5.94 8.046-8.9 12.075a1384.41 1384.41 0 0 1-11.562 15.517c-4.372 5.78-8.616 11.613-12.688 17.609-9.752 14.352-20.289 28.138-30.86 41.892-12.243 15.868-12.243 15.868-24.048 32.06-5.185 7.343-10.559 14.548-15.903 21.775-1.782 2.417-3.557 4.84-5.33 7.265a965.454 965.454 0 0 1-19.234 25.428c-5.99 7.665-11.742 15.497-17.482 23.35-7.573 10.357-15.15 20.704-23.01 30.847-3.615 4.667-7.183 9.371-10.758 14.07a4044.391 4044.391 0 0 1-13.375 17.5l-2.352 3.055a2540.55 2540.55 0 0 1-4.609 5.953 905.966 905.966 0 0 0-14.289 18.992c-7.035 9.59-14.228 19.054-21.458 28.497a6808.618 6808.618 0 0 0-5.468 7.151c-3.146 4.12-6.297 8.237-9.449 12.352-.445.582-.89 1.164-1.35 1.763-7.37 9.625-14.842 19.168-22.369 28.67-8.12 10.27-16.003 20.71-23.73 31.278-5.88 8.038-11.813 15.991-18.084 23.729-3.724 4.6-7.329 9.281-10.904 13.998-4.843 6.379-9.822 12.626-14.896 18.821a459.273 459.273 0 0 0-9.73 12.303 635.108 635.108 0 0 1-10.812 13.75c-7.688 9.552-15.024 19.363-22.188 29.313-6.805 9.404-14.114 18.433-21.488 27.395-3.016 3.67-6.015 7.355-9.011 11.042l-1.71 2.105c-3.55 4.371-7.075 8.759-10.583 13.161a1417.775 1417.775 0 0 1-6.77 8.352c-4.675 5.735-9.32 11.488-13.875 17.32-5.593 7.16-11.331 14.2-17.07 21.243-7.825 9.618-15.47 19.384-23.086 29.167-8.051 10.323-16.384 20.406-24.742 30.48-7.586 9.194-14.827 18.659-22.128 28.079-5.31 6.842-10.72 13.564-16.354 20.142-3.275 3.84-6.406 7.773-9.495 11.764-4.455 5.745-9.136 11.256-13.925 16.726-3.916 4.477-7.713 9.034-11.458 13.657-2.545 3.112-5.138 6.18-7.742 9.242a691.356 691.356 0 0 0-9.938 11.938c-3.956 4.862-8.026 9.619-12.118 14.368-3.798 4.417-7.5 8.904-11.174 13.424-4.817 5.878-9.765 11.646-14.686 17.436a6960.37 6960.37 0 0 0-4.209 4.959l-1.395 1.645a629.027 629.027 0 0 0-8.355 10.105c-4.167 5.122-8.487 10.1-12.825 15.075-3.925 4.512-7.734 9.103-11.5 13.75-3.68 4.48-7.475 8.862-11.257 13.257-2.885 3.354-5.75 6.726-8.605 10.105l-1.363 1.613-2.716 3.216c-2.743 3.248-5.49 6.492-8.236 9.736-2.28 2.695-4.56 5.39-6.838 8.088-4.78 5.658-9.58 11.296-14.41 16.91a547.798 547.798 0 0 0-10.313 12.313c-5.157 6.348-10.541 12.493-15.911 18.661-6.902 7.947-13.718 15.968-20.51 24.01-4.845 5.733-9.734 11.43-14.625 17.125-2.507 2.92-5.011 5.843-7.516 8.766l-3 3.5-1.5 1.75-16.5 19.25-1.5 1.751-2.993 3.49c-2.542 2.963-5.08 5.93-7.612 8.9-4.47 5.237-8.948 10.453-13.583 15.547a219.361 219.361 0 0 0-8.624 10.124c-3.892 4.815-8.02 9.339-12.248 13.854a180.393 180.393 0 0 0-8.877 10.271c-4.582 5.709-9.551 11.006-14.555 16.34a307.667 307.667 0 0 0-8.344 9.309c-4.256 4.896-8.644 9.678-12.992 14.492-3.356 3.722-6.704 7.446-9.984 11.234-4.587 5.263-9.357 10.36-14.103 15.478-2.553 2.754-5.1 5.513-7.648 8.273l-1.5 1.624a2626.24 2626.24 0 0 0-26.574 29.2c-5.71 6.367-11.5 12.659-17.31 18.935-2.54 2.745-5.078 5.493-7.615 8.24l-1.505 1.63a5294.638 5294.638 0 0 0-14.074 15.324c-2.746 2.998-5.493 5.995-8.24 8.99a5566.06 5566.06 0 0 0-6.764 7.389 2216.451 2216.451 0 0 1-17.167 18.542 1289.177 1289.177 0 0 0-10.563 11.438c-6.434 7.037-12.982 13.964-19.527 20.897-2.09 2.22-4.175 4.446-6.258 6.673-6.525 6.971-13.089 13.873-19.885 20.58-3.293 3.266-6.375 6.652-9.38 10.182-2.16 2.46-4.494 4.723-6.829 7.016-1.81 1.843-3.5 3.755-5.184 5.715-2.968 3.446-6.103 6.653-9.374 9.812-1.888 1.941-3.65 3.925-5.415 5.977-3.846 4.43-7.963 8.54-12.148 12.648a1800.445 1800.445 0 0 0-4.273 4.21l-1.88 1.846c-1.567 1.52-1.567 1.52-2.472 3.569h-2l-.716 1.706c-1.582 2.827-3.513 4.73-5.827 6.997l-2.756 2.723c-.962.942-1.925 1.883-2.889 2.824-5.633 5.529-11.19 11.032-16.321 17.034-2.05 2.359-4.253 4.537-6.491 6.716-2.91 2.876-5.724 5.759-8.375 8.875-3.483 4.077-7.262 7.822-11.1 11.562a126.73 126.73 0 0 0-7.642 8.18c-4.148 4.76-8.585 9.193-13.07 13.633l-2.61 2.599c-3.653 3.636-7.312 7.266-10.97 10.897a9513.531 9513.531 0 0 0-8.046 8.004l-2.475 2.45c-4.176 4.159-8.16 8.399-12.003 12.866-2.973 3.364-6.171 6.499-9.365 9.653l-2.14 2.128c-2.983 2.967-5.972 5.928-8.961 8.89-2.198 2.18-4.392 4.362-6.587 6.544l-2.011 1.986c-3.806 3.787-7.388 7.695-10.895 11.758-2.923 3.299-6.052 6.38-9.188 9.475l-2.072 2.06c-2.887 2.872-5.781 5.738-8.675 8.604-2.128 2.11-4.253 4.223-6.377 6.336l-1.946 1.92c-3.068 3.052-6.022 6.146-8.844 9.427-4.256 4.927-8.85 9.498-13.457 14.094l-2.804 2.808a5218.63 5218.63 0 0 1-5.847 5.842c-2.479 2.473-4.953 4.95-7.426 7.43-2.389 2.392-4.78 4.781-7.173 7.17l-2.658 2.665c-4.382 4.366-8.83 8.572-13.52 12.604-2.47 2.157-4.774 4.456-7.075 6.79l-1.388 1.4a2088.454 2088.454 0 0 0-4.3 4.35c-1.893 1.92-3.79 3.836-5.688 5.75l-2.511 2.547c-2.073 2-4.149 3.872-6.336 5.738-5.403 4.69-10.4 9.788-15.437 14.862a3470.28 3470.28 0 0 1-5.453 5.477c-3.861 3.872-7.718 7.749-11.575 11.626-4.474 4.498-8.95 8.994-13.43 13.486a4227.28 4227.28 0 0 0-5.33 5.362c-5.075 5.097-10.168 10.11-15.644 14.78-2.036 1.75-3.934 3.612-5.815 5.528l-2.136 2.16-2.145 2.184c-4.734 4.82-9.521 9.459-14.643 13.865-2.75 2.42-5.301 5.013-7.857 7.635-3.201 3.245-6.391 6.43-9.875 9.375-4.59 3.899-8.748 8.223-12.98 12.5-3.64 3.662-7.348 7.152-11.29 10.488-3.027 2.671-5.81 5.584-8.644 8.457a113.698 113.698 0 0 1-6.086 5.555c-3.37 2.887-6.51 5.968-9.625 9.125-3.597 3.64-7.265 7.117-11.156 10.441-3.264 2.867-6.425 5.839-9.594 8.809A2156.977 2156.977 0 0 1 4789 8620l-6 5.5-2.992 2.742a7175.944 7175.944 0 0 0-6.078 5.578c-9.915 9.106-19.863 18.171-30.118 26.895-6.84 5.824-13.557 11.744-20.156 17.84-6.196 5.704-12.624 11.141-19.024 16.614a1753.084 1753.084 0 0 0-11.406 9.853 643.76 643.76 0 0 1-17.683 14.869c-2.579 2.139-5.066 4.353-7.543 6.609-4.197 3.822-8.537 7.415-12.95 10.984-3.57 2.945-7.062 5.973-10.55 9.016a651.824 651.824 0 0 1-18.5 15.5 5455.994 5455.994 0 0 0-3.742 3.055c-6.413 5.233-12.848 10.427-19.383 15.507-5.442 4.237-10.696 8.659-15.911 13.17a359.78 359.78 0 0 1-12.222 10.088c-3.522 2.8-7.005 5.648-10.492 8.493a1039.64 1039.64 0 0 1-16.958 13.52c-4.498 3.52-8.931 7.115-13.355 10.73a689.348 689.348 0 0 1-17.73 13.98 879.103 879.103 0 0 0-10.145 7.895l-1.77 1.393L4499 8864c-14.301 11.264-28.643 22.478-43.099 33.543a3741.177 3741.177 0 0 0-4.209 3.23c-12.087 9.284-24.282 18.38-36.692 27.227l-3.598 2.57c-1.693 1.21-3.386 2.419-5.082 3.625a884.92 884.92 0 0 0-9.59 6.926c-17.203 12.577-35.03 24.188-53.792 34.317l-1.84 1c-7.84 4.161-14.094 4.901-22.848 4.874l-3.133.05c-11.128.006-19.287-2.653-28.117-9.362l-1.8-1.3c-10.249-7.987-17.589-19.648-19.792-32.367-.715-5.84-.703-11.674-.669-17.548.01-2.15 0-4.3-.012-6.45-.028-24.625 7.384-44.337 24.915-61.988 7.112-6.927 14.566-13.46 22.144-19.867 4.925-4.18 9.659-8.545 14.37-12.963 3.048-2.856 6.117-5.666 9.282-8.392 3.05-2.629 5.877-5.416 8.695-8.29 1.773-1.742 3.6-3.357 5.492-4.968 4.835-4.207 9.354-8.702 13.879-13.238l2.673-2.67c2.325-2.325 4.648-4.652 6.97-6.98 1.414-1.415 2.83-2.83 4.247-4.243 2.748-2.741 5.492-5.486 8.235-8.232l2.532-2.526c4.283-4.3 8.41-8.673 12.369-13.274 1.722-1.996 3.511-3.916 5.337-5.817l1.98-2.076 2.028-2.123c5.25-5.534 10.254-11.12 14.996-17.094 2.39-2.912 4.93-5.66 7.504-8.406 4.472-4.792 8.567-9.795 12.572-14.98a311.837 311.837 0 0 1 8.99-11.083c4.805-5.725 9.276-11.66 13.731-17.66 3.035-4.083 6.122-8.123 9.217-12.16A1073.952 1073.952 0 0 0 4500 8624l1.758-2.465c6.866-9.64 13.506-19.349 19.699-29.433 2.85-4.63 5.82-9.177 8.793-13.727A2536.38 2536.38 0 0 0 4551 8546l1.64-2.596c13.624-21.619 26.15-43.873 38.574-66.196 1.844-3.313 3.692-6.624 5.54-9.935a3070.654 3070.654 0 0 0 21.125-38.507c2.047-3.795 4.117-7.575 6.21-11.344 5.365-9.674 10.44-19.408 15.139-29.422 4.424-9.386 9.088-18.647 13.753-27.916 8.355-16.61 16.528-33.265 24.175-50.216.896-1.984 1.797-3.967 2.698-5.95 11.22-24.715 21.94-49.638 32.592-74.604a3402.304 3402.304 0 0 1 9.929-23.002c10.017-23.043 19.818-46.18 29.625-69.312l1.27-2.994c15.778-37.217 31.232-74.6 45.137-112.561 3.783-10.323 7.715-20.58 11.718-30.82l3.555-9.105.866-2.22c14.608-37.449 28.267-75.273 41.86-113.1a5458.146 5458.146 0 0 1 5.722-15.822c9.658-26.602 19.032-53.282 28.074-80.1a3241.75 3241.75 0 0 1 6.099-17.907c16.75-48.735 33.037-97.635 48.562-146.775 1.24-3.922 2.484-7.842 3.729-11.762 12.297-38.733 24.352-77.531 36.065-116.445a6702.025 6702.025 0 0 1 9.519-31.319c9.203-30.055 18.233-60.15 26.982-90.341a4480.001 4480.001 0 0 1 19.386-65.127c25.245-82.416 49.112-165.249 121.18-419.06l3.318-11.807c6.258-22.268 12.503-44.54 18.74-66.814 1.746-6.237 3.494-12.474 5.244-18.71 12.691-45.248 25.199-90.54 37.4-135.923a23454.677 23454.677 0 0 1 13.47-49.88c7.147-26.364 14.43-52.688 21.743-79.006a15562.163 15562.163 0 0 0 21.73-79.058c16.236-59.66 32.678-119.261 49.49-178.762 1.76-6.229 3.514-12.46 5.267-18.69a8783.29 8783.29 0 0 1 25.387-88.356 9647.227 9647.227 0 0 0 19.977-69.274 8448.29 8448.29 0 0 1 28.423-97.61l3.318-11.152c5.988-20.132 11.98-40.262 18.042-60.371l2.977-9.879.72-2.39c3.94-13.093 7.751-26.22 11.53-39.36 9.522-33.1 19.564-66.035 29.635-98.971 4.71-15.413 9.367-30.84 13.977-46.283 4.793-16.054 9.664-32.064 14.86-47.992 2.181-6.69 4.265-13.407 6.34-20.129a5459.08 5459.08 0 0 1 25.5-80.25l1.08-3.314c3.496-10.724 7.03-21.425 10.807-32.053a332.195 332.195 0 0 0 6.376-19.978c2.73-9.47 5.978-18.772 9.175-28.092l1.008-2.949c3.967-11.603 8-23.163 12.398-34.61 3.085-8.064 5.927-16.204 8.761-24.358 5.022-14.446 10.243-28.789 15.83-43.026 3.22-8.249 6.164-16.566 9.019-24.948 4.467-13.06 9.508-25.838 14.734-38.61l2.784-6.844A8213.2 8213.2 0 0 1 5639 5282l2.253-5.502c23.498-57.34 47.402-114.745 74.59-170.451l1.288-2.637c2.104-4.309 4.215-8.614 6.336-12.915 3.709-7.542 7.274-15.066 10.428-22.862 1.784-4.25 3.885-8.313 6.042-12.383l1.225-2.379a85.54 85.54 0 0 1 8.52-13.153c1.636-2.132 3.002-4.378 4.318-6.718l-3.836-.813c-5.326-1.186-10.55-2.657-15.789-4.18l-3.124-.901c-3.418-.99-6.835-1.984-10.251-2.981l-3.604-1.05c-69.341-20.239-138.134-41.749-204.405-70.766-2.05-.897-4.103-1.788-6.158-2.672-30.939-13.333-61.479-28.248-90.538-45.308-2.98-1.726-6.004-3.366-9.033-5.008-35.516-19.313-72.027-42.712-101.848-70.153-2.51-2.254-5.096-4.37-7.726-6.48-5.459-4.415-10.579-9.135-15.708-13.922a225.515 225.515 0 0 0-6.855-6.141c-3.983-3.448-7.834-7.034-11.688-10.625l-1.895-1.763c-3.06-2.86-6.068-5.753-9.007-8.737a122.443 122.443 0 0 0-7.312-6.785c-5.174-4.469-9.964-9.31-14.785-14.153l-2.749-2.736c-4.55-4.557-8.969-9.166-13.162-14.054-2.234-2.593-4.57-5.08-6.902-7.584-4.325-4.676-8.385-9.51-12.379-14.473-2.334-2.822-4.766-5.52-7.246-8.215-4.04-4.394-7.847-8.918-11.594-13.563-2.704-3.3-5.487-6.524-8.281-9.75-4.964-5.749-9.7-11.643-14.355-17.644a344.351 344.351 0 0 0-5.633-7.055c-26.222-32.044-48.282-68.255-68.137-104.488l-1.756-3.18c-11.08-20.096-21.125-40.667-31.08-61.338-1.735-3.6-3.487-7.19-5.25-10.775-16.185-33.06-30.063-67.297-44.437-101.167-3.5-8.245-7.01-16.486-10.528-24.724-18.198-42.63-36.098-85.32-52.715-128.597-6.912-17.99-14.11-35.732-22.234-53.219l-1.443-3.123c-11.141-24.008-23.515-47.434-37.557-69.877l-1.896-3.036c-7.558-12.063-15.25-23.925-23.844-35.276-2.208-2.958-4.32-5.984-6.448-9-10.418-14.661-22.444-27.507-35.131-40.193a2139.44 2139.44 0 0 1-6.134-6.173c-7.213-7.243-14.5-14.007-22.547-20.322a1243.913 1243.913 0 0 1-5.25-4.438c-28.084-22.83-62.143-35.467-95.841-47.5A258.77 258.77 0 0 1 4668 3936c-.333 79.005-.652 158.01-.578 516.404l.045 6.047c.056 7.436.116 14.873.186 22.309.02 2.19.039 4.38.056 6.57.092 11.283.344 22.516 1.07 33.777.356 6.277.367 12.544.346 18.83l.012 3.725a561482559.763 561482559.763 0 0 1-.008 6.713C4669 4553 4669 4553 4668 4556c-1.324 12.009-1.14 24.116-1.126 36.179a14159.834 14159.834 0 0 0-.003 23.915c.003 6.361 0 12.723-.003 19.085-.003 11.151-.003 22.302 0 33.453.002 11.966.003 23.931 0 35.897v2.293l-.001 9.25c-.006 28.724-.006 57.449-.003 86.173a582423.173 582423.173 0 0 1 .001 109.664l-.002 58.99v2.714a947698.351 947698.351 0 0 0 .007 133.617 1085430.81 1085430.81 0 0 1-.004 222.455v2.776c-.002 28.405-.003 56.81-.003 85.216v2.718a1919366.819 1919366.819 0 0 0 .003 85.666c.001 25.082 0 50.163-.002 75.244-.015 118.58-.015 118.58.478 341.824.027 4.752.053 9.505.076 14.257.45 91.665 3.128 183.12 120.582 417.614l1.539 1.839c10.49 12.49 21.54 24.328 33.024 35.911l2.613 2.653c5.212 5.219 10.61 10.016 16.366 14.627a172.139 172.139 0 0 1 5.743 4.798c34.716 30.272 77.04 53.907 120.715 68.172l2.792.943c36.417 12.198 76.572 16.583 114.807 18.375 6.368.32 12.335.628 18.401 2.682l1 2-6 1c2.915.81 4.461 1.218 7.313.063L5108 6507c-.16.685-.318 1.37-.482 2.077-.578 3.264-.714 6.379-.8 9.693l-.113 3.943a6157.9 6157.9 0 0 0-.105 4.1c-.412 16.108-.412 16.108-1.5 23.187l-3 1-1.438 2c-1.878 2.405-2.625 2.486-5.562 3a88.663 88.663 0 0 1-4.765.157l-2.91.03-3.19.016-3.394.03c-3.762.03-7.525.055-11.287.079a15391.401 15391.401 0 0 1-27.657.198c-5.376.034-10.751.07-16.127.108-61.429.423-122.857.528-184.288.514-10.45-.003-20.9-.002-31.351 0h-2.333l-9.417.001c-28.738.006-57.476.006-86.214.003a572506.877 572506.877 0 0 0-109.11-.001l-58.988.002h-2.71a929761.358 929761.358 0 0 1-132.31-.007 1077882.749 1077882.749 0 0 0-222.125.004h-2.792l-85.228.003h-2.702a1882917.506 1882917.506 0 0 1-84.97-.003c-27.646-.002-55.29 0-82.936.003a304791.952 304791.952 0 0 1-94.892-.006h-2.284c-11.878-.002-23.757 0-35.635.002-11.708.003-23.416.002-35.124-.003-6.247-.002-12.495-.003-18.742 0-42.582.023-42.582.023-59.756-.402-1.886-.046-3.772-.08-5.658-.115-7.396-.228-14.387-1.293-21.597-2.876-6.073-1.276-12.218-2.005-18.371-2.788-1.403-.182-2.805-.366-4.208-.55-3.677-.48-7.355-.954-11.033-1.427A7522.521 7522.521 0 0 1 3583 6544l-2.454-.327c-27.414-3.663-54.596-8.195-81.772-13.327-3.856-.725-7.714-1.439-11.572-2.152-3.766-.698-7.531-1.402-11.296-2.108-1.77-.332-3.54-.661-5.311-.99-18.053-3.35-18.053-3.35-24.595-6.096l-2-3-4 2v-2c-.66.07-1.32.14-2 .21-8.249.452-15.522-1.024-23.5-3.023-1.05-.26-2.101-.52-3.184-.79-4.899-1.278-9.137-2.426-13.316-5.397l-1-3c-3.443-2.516-6.868-2.234-11-2l-1 1c-7.782.734-15.04-1.52-22-5l-1-5-10-2v2c-4.746 1.52-8.447.27-13-1.25l-2.117-.66c-3.967-1.28-7.384-2.766-10.883-5.09l1-3c2.063-.688 2.063-.688 4-1h-6l-1 4c-3.72-.607-6.736-1.679-10.125-3.313-4.77-2.236-9.579-4.09-14.563-5.792C3297 6476 3297 6476 3294 6474a76.763 76.763 0 0 0-4.938-.813c-6.358-1.09-15.133-2.62-19.425-7.847l-.887-1.653L3267 6461c-1.94.027-3.88.058-5.82.12-3.618-.2-6.518-1.895-9.617-3.62-1.415-.75-2.83-1.497-4.247-2.242l-2.175-1.155c-2.662-1.371-5.376-2.594-8.11-3.815-11.17-5.02-21.606-11.268-32.108-17.545a1054.32 1054.32 0 0 0-8.06-4.75c-17.967-10.555-35.674-21.838-51.863-34.993l-2.762-2.219A782.76 782.76 0 0 1 3134 6384l-1.546-1.285a518.368 518.368 0 0 1-21.824-19.202 939.622 939.622 0 0 0-5.33-4.896c-16.293-14.947-30.03-31.586-43.352-49.188-3.881-5.103-7.906-10.066-12.01-14.992-4.962-5.962-9.753-12.016-14.36-18.257a764.086 764.086 0 0 0-7.357-9.833c-7.44-9.766-14.388-19.795-21.159-30.034l-1.58-2.383A843.232 843.232 0 0 1 2957 6151l-1.12-2.188a815.007 815.007 0 0 1-5.82-11.65 1249.86 1249.86 0 0 0-2.272-4.609c-35.62-72.028-58.559-151.91-72.004-230.977a833.216 833.216 0 0 0-1.564-8.906c-8.141-44.972-11.755-91.14-13.127-136.79a1513.73 1513.73 0 0 0-.35-9.587c-.88-23.987-.93-47.97-.928-71.971 0-4.65-.007-9.3-.02-13.95-.123-42.19.427-84.41 5.205-126.372l.332-2.917c12.434-108.452 34.973-215.004 77.668-345.083l1.137-3.31c5.51-15.935 11.683-31.616 17.845-47.308 4.04-10.288 8.01-20.596 11.893-30.944 6.88-18.238 14.389-36.095 22.67-53.74 4.708-10.036 9.28-20.13 13.83-30.238 11.405-25.318 23.432-50.25 35.93-75.048a5299.67 5299.67 0 0 0 2.3-4.57c.934-1.859 1.871-3.716 2.81-5.572a127.319 127.319 0 0 0 3.17-7.07c1.415-3.2 1.415-3.2 3.415-5.2l.5-2.063.5-1.937 2-1c.956-2.073.956-2.073 1.813-4.563 1.584-4.146 3.463-7.65 5.904-11.34 1.223-1.998 2.161-3.947 3.076-6.1 2.493-5.715 5.243-11.291 8.02-16.872l1.501-3.066c3.025-6.08 6.349-11.794 10.054-17.482 2.355-3.719 4.337-7.589 6.32-11.515 4.825-9.341 10.153-18.316 15.629-27.287 1.827-3.013 3.63-6.039 5.43-9.068 5.672-9.542 11.34-19.027 17.623-28.18 3.438-5.079 6.442-10.369 9.443-15.715 5.955-10.58 12.456-20.713 19.187-30.812l3.31-4.98a6702.576 6702.576 0 0 1 10.538-15.805c2.328-3.482 4.653-6.965 6.96-10.461 5.426-8.213 11.031-16.293 16.67-24.361 5.061-7.255 10.037-14.563 14.986-21.894 8.992-13.316 18.185-26.447 27.888-39.258a603661032.973 603661032.973 0 0 0 2.92-3.853c4.4-5.855 8.567-11.862 12.728-17.888 12.485-18.058 25.889-35.209 40.12-51.92a561.625 561.625 0 0 0 8.318-10.017c3.958-4.865 8.028-9.624 12.123-14.374a466.843 466.843 0 0 0 8.876-10.627c4.103-5.051 8.35-9.965 12.623-14.872 3.532-4.058 7.035-8.14 10.503-12.252a2073.889 2073.889 0 0 1 12.88-15.13c2.552-2.976 5.108-5.948 7.666-8.917 4.59-5.332 9.15-10.674 13.579-16.141 3.552-4.378 7.272-8.561 11.07-12.727 2.287-2.574 4.457-5.216 6.617-7.898 3.685-4.558 7.559-8.87 11.55-13.155a167.673 167.673 0 0 0 8.262-9.658c14.727-18.146 32.106-34.214 48.654-50.668 4.735-4.71 9.45-9.44 14.162-14.172 3.245-3.26 6.494-6.516 9.743-9.773 1.706-1.711 3.412-3.424 5.117-5.137 2.477-2.49 4.957-4.975 7.438-7.46l2.28-2.296c4.12-4.121 8.33-8.07 12.755-11.864 1.988-1.723 3.837-3.55 5.664-5.442 2.52-2.559 5.081-4.982 7.813-7.313 3.389-2.91 6.551-6.009 9.687-9.187 3.681-3.726 7.433-7.299 11.418-10.7 2.514-2.173 4.95-4.424 7.394-6.675 4.517-4.124 9.18-8.004 13.938-11.844 2.831-2.348 5.544-4.79 8.25-7.281 4.416-4.06 8.962-7.893 13.629-11.66 3.1-2.527 6.143-5.116 9.184-7.715 4.987-4.248 10.078-8.339 15.25-12.361 4.493-3.501 8.908-7.089 13.312-10.702 5.924-4.849 11.972-9.488 18.125-14.042 4.772-3.551 9.406-7.242 14-11.02 5.905-4.854 11.93-9.5 18.07-14.05a419.678 419.678 0 0 0 13.43-10.45 538.093 538.093 0 0 1 17.104-13.22c3.828-2.848 7.631-5.722 11.408-8.635 9.244-7.126 18.559-14.035 28.238-20.558 4.895-3.301 9.698-6.693 14.438-10.212 9.402-6.97 18.968-13.735 28.937-19.875 3.598-2.247 6.925-4.67 10.22-7.328l1.843-1.485 1.676-1.352c4.194-3.327 8.506-6.241 13.081-9.015a498.47 498.47 0 0 0 16.598-10.652l2.01-1.35 4.06-2.734c11.716-7.889 23.495-15.603 35.575-22.928 3.85-2.34 7.59-4.824 11.33-7.334 5.335-3.559 10.982-6.44 16.67-9.385 6.716-3.497 13.394-7.046 20-10.75 10.57-5.923 21.252-11.638 31.929-17.368 3.32-1.785 6.635-3.576 9.95-5.37 6.468-3.5 12.948-6.98 19.433-10.449l3.168-1.7c15.315-8.195 30.838-15.534 46.832-22.3l3.94-1.675a4529.287 4529.287 0 0 1 14.412-6.097c1.89-.797 3.78-1.59 5.671-2.38l3.28-1.375a318.123 318.123 0 0 1 9.428-3.565l2.993-1.085L4091 3917l.016-154.222v-3.054c.011-109.003.02-218.006.026-327.008v-7.348a17470237.24 17470237.24 0 0 0 .013-244.04c.004-74.655.01-149.31.019-223.963.014-123.041.024-246.082-.488-1118.772l-.057-31.708c-.057-32.054-.12-64.108-.192-96.161-.018-7.822-.033-15.643-.048-23.465-.017-9.206-.038-18.412-.063-27.618-.012-4.562-.023-9.123-.03-13.685-.028-17.39-.166-34.767-.647-52.15l-.06-2.201c-.311-11.394-1.105-22.628-2.677-33.918l-.668-5.05c-9.54-70.49-33.23-136.911-70.144-197.637l-1.385-2.301c-5.918-9.813-12.344-19.21-19.04-28.506-1.6-2.228-3.186-4.465-4.77-6.705-9.625-13.548-19.796-26.52-31.172-38.644a254.512 254.512 0 0 1-5.957-6.684c-3.703-4.25-7.618-8.25-11.613-12.223l-2.014-2.025a227.734 227.734 0 0 0-12.158-11.266c-2.267-1.974-4.463-4.014-6.655-6.07A304.808 304.808 0 0 0 3902 1224l-3.633-2.965c-61.734-49.786-132.267-74.88-211.264-78.301-26.313-1.176-26.313-1.176-34.103-5.734-6.99-9.042-6.7-23.056-6-34 .312-1.338.641-2.673 1-4Zm746 39v2c.531.27 1.063.54 1.61.82 32.265 16.484 62.3 36.048 89.39 60.18l1.59 1.415c6.967 6.236 13.66 12.74 20.285 19.335l2.126 2.112c4.536 4.55 8.819 9.26 12.999 14.138a4892.11 4892.11 0 0 0 2.922 3.352c49.33 56.943 87.584 124.43 112.078 195.648l1.08 3.132c11.1 32.553 18.06 66.152 22.733 100.18l.319 2.29.308 2.236.268 1.935c2.28 18.03 2.442 36.013 2.443 54.162l.013 7.532c.01 5.465.016 10.93.02 16.395.004 8.22.015 16.44.027 24.66.02 14.135.036 28.269.05 42.403.013 14.519.029 29.037.047 43.556l.003 2.806.014 11.34c.046 36.772.086 73.544.124 110.316a692587.595 692587.595 0 0 0 .142 128.817l.004 3.39c.118 101.867.224 203.735.628 687.935l.059 78.404.002 2.611.01 13.057.002 2.611a82675778.962 82675778.962 0 0 0 .144 190.724l.002 2.604a1741935.193 1741935.193 0 0 1 .139 204.148l.001 2.538.054 77.55.001 2.46a2314460.297 2314460.297 0 0 0 .055 74.779l.002 2.36c.017 22.952.032 45.905.044 68.859.037 138.13.037 138.13.686 312.458l.06 10.34c.054 9.441.112 18.882.18 28.322.02 2.766.038 5.532.054 8.298.022 3.716.05 7.432.081 11.148l.016 3.218c.056 5.882.43 11.59 1.185 17.426 6.336 1.05 12.661 1.39 19.07 1.719l3.606.19c2.533.133 5.066.264 7.6.393 3.732.192 7.465.392 11.197.593 33.8 1.777 67.594 2.266 101.437 2.49l2.087.013c73.175.486 146.35.83 219.526 1.118l2.094.008c80.796.317 161.593.53 430.656.713l5.597.001h2.8a4119059.972 4119059.972 0 0 1 16.83.003c30.626.003 61.253.02 91.879.042a139821.48 139821.48 0 0 0 112.644.04c14.134.002 28.268.013 42.402.027 14.069.015 28.138.018 42.207.01 8.303-.004 16.606 0 24.909.015 6.217.011 12.435.006 18.653-.005 2.49-.001 4.98.002 7.471.01 22.323.074 44.37-1.755 66.273-6.193l3.913-.777c14.916-3.052 29.264-7.106 43.149-13.41l2.16-.918c26.19-11.21 52.117-25.65 74.166-43.723 2.295-1.863 4.63-3.67 6.965-5.482 10.958-8.516 21.46-17.52 31.709-26.877.933-.84 1.867-1.68 2.828-2.547 9.568-8.645 19.022-17.533 27.375-27.375 1.867-2.159 3.796-4.253 5.737-6.344 4.732-5.1 9.273-10.295 13.634-15.718a593.126 593.126 0 0 1 5.383-6.594c8.414-10.191 16.294-20.72 24.043-31.422.87-1.193 1.742-2.386 2.613-3.578 45.72-62.927 84.873-132.928 115.387-204.422l.854-1.995c22.203-51.91 41.903-104.827 59.34-158.522.786-2.423 1.577-4.845 2.367-7.267 8.534-26.202 16.176-52.636 23.439-79.216l.89-3.252c14.77-54.055 27.936-108.63 38.11-163.748l.522-2.802c15.106-81.262 24.43-163.736 34.852-269.765.486-5.011.98-10.022 1.479-15.032 5.746-57.714 8.308-114.898 8.314-172.892.001-3.52.003-7.038.006-10.558.009-12.37.013-24.742.012-37.114 0-11.38.01-22.76.026-34.141.013-9.9.018-19.799.018-29.698 0-5.856.002-11.711.013-17.567.052-29.866-.607-59.608-2.242-89.431l-.122-2.247c-.489-8.942-1.03-17.88-1.628-26.816l-.25-3.769c-5.238-78.499-12.953-157.185-44-345.168l-.586-2.88c-12.774-62.753-27.705-124.873-45.789-186.307l-.587-1.996c-3.85-13.08-7.716-26.137-12.133-39.038a127.216 127.216 0 0 1-3.42-11.873c-1.81-7.666-4.568-15.007-7.235-22.406a6862.15 6862.15 0 0 1-1.64-4.594c-.81-2.268-1.62-4.535-2.432-6.802-1.654-4.62-3.271-9.25-4.857-13.893-8.724-25.447-18.814-50.457-29.321-75.211l-1.278-3.013c-3.301-7.78-6.614-15.556-9.934-23.329a8240.57 8240.57 0 0 1-2.311-5.421c-9.174-21.518-18.53-43.002-29.232-63.813-.948-1.846-1.892-3.694-2.834-5.543-8.419-16.523-17.108-32.833-26.411-48.881l-1.993-3.454c-9.292-16.096-18.84-31.982-29.007-47.546l-1.196-1.834A669.086 669.086 0 0 0 6159 1357l-1.171-1.736c-15.349-22.734-31.957-44.536-49.738-65.42a477.746 477.746 0 0 1-8.716-10.594c-3.444-4.238-7.093-8.114-11.04-11.887-1.965-1.989-3.787-4.013-5.612-6.129-3.714-4.28-7.643-8.302-11.66-12.296l-2.014-2.026c-3.945-3.938-8-7.688-12.22-11.329-2.428-2.102-4.783-4.28-7.141-6.458-5.407-4.919-10.958-9.588-16.688-14.125l-1.754-1.4c-17.291-13.747-35.658-26.35-55.246-36.6l-1.804-.964c-32.936-17.541-68.828-30.266-106.196-33.036l-3.175-.243c-11.668-.815-23.31-.971-35.003-1.056l-6.902-.059c-7.187-.06-14.374-.11-21.561-.159l-8.598-.06c-87.933-.631-175.87-.682-304.281-.875-23.287-.034-46.573-.07-69.86-.108l-2.371-.004a2730835.56 2730835.56 0 0 1-77.232-.126 1495148.424 1495148.424 0 0 0-180.296-.283 10275978.552 10275978.552 0 0 1-103.502-.16c-38.103-.059-76.206-.119-114.308-.18l-2.45-.005a2659583.592 2659583.592 0 0 1-74.8-.122l-2.372-.004c-23.232-.037-46.465-.073-69.697-.107-35.581-.052-71.163-.107-106.744-.168l-2.073-.003c-96.26-.164-192.517-.552-288.775-1.278Zm2025 1592v18h1v-18h-1Zm-1 18v12h1v-12h-1Zm-1 14v10h1v-10h-1Zm-1 11v10h1v-10h-1Zm-1 11v10h1v-10h-1Zm-1 10v10h1v-10h-1Zm-1 10c-.339 2.833-.671 5.666-1 8.5-.095.791-.19 1.583-.29 2.398A112.747 112.747 0 0 0 6411 2830h1c1.207-8.688 2.38-17.203 2-26h-1Zm-3 26v7h1v-7h-1Zm-4 30v5h1v-5h-1Zm370.234 1041.402c-2.995.801-6 1.562-9.004 2.328-26.449 7.004-53.064 17.493-77.23 30.27l-2.504 1.315c-23.725 12.62-46.2 28.346-67.496 44.685l-1.868 1.43c-17.727 13.615-34.996 27.975-51.437 43.12a377.29 377.29 0 0 1-6.4 5.675c-12.367 10.812-24.05 22.366-35.644 33.994-2.24 2.245-4.485 4.485-6.731 6.724l-4.361 4.366-1.992 1.986a223.29 223.29 0 0 0-11.01 11.91c-2.403 2.77-4.922 5.432-7.432 8.108-4.538 4.873-8.818 9.89-12.988 15.085-2.096 2.552-4.277 4.985-6.512 7.414-3.981 4.374-7.642 8.931-11.262 13.602a478.27 478.27 0 0 1-9.106 11.357c-6.357 7.71-12.276 15.661-18.077 23.795-2.978 4.172-6.031 8.28-9.118 12.372-15.69 20.854-30.695 42.05-44.765 64.04-1.743 2.717-3.502 5.423-5.26 8.13-20.286 31.253-39.673 62.973-57.787 95.538-3.989 7.155-8.09 14.235-12.25 21.292-6.196 10.53-12.013 21.24-17.762 32.019a772.19 772.19 0 0 1-8.3 15.105c-5.033 8.973-9.751 18.106-14.47 27.247-1.9 3.68-3.814 7.352-5.751 11.013-6.035 11.403-11.9 22.881-17.654 34.428l-1.324 2.652c-6.178 12.382-12.288 24.79-18.186 37.308-1.912 4.05-3.834 8.094-5.756 12.138a9056.166 9056.166 0 0 0-10.563 22.31c-2.145 4.544-4.303 9.08-6.472 13.612-10.189 21.431-19.278 43.351-28.514 65.204a3270.486 3270.486 0 0 1-8.982 21.038 1452.428 1452.428 0 0 0-25.308 62.804 2193.157 2193.157 0 0 1-5.082 13.324c-16.594 43.216-32.483 87.01-44.247 131.815-2.175 8.22-4.653 16.35-7.129 24.483l-.651 2.15c-3.5 11.56-3.5 11.56-4.937 15.076-1.196 3.062-1.53 6.084-1.912 9.336 3.776 1.332 6.814.736 10.713.079l2.033-.336c2.233-.371 4.464-.754 6.695-1.138l4.745-.796c4.246-.714 8.49-1.44 12.735-2.168 2.643-.454 5.286-.905 7.929-1.355 43.355-7.393 86.522-15.377 129.15-26.286.902-.23 1.805-.461 2.734-.7 25.836-6.63 51.236-14.07 76.266-23.3l2.475-.913c33.454-12.367 66.53-25.472 98.75-40.787a284.061 284.061 0 0 1 7.326-3.296c5.477-2.414 10.77-5.174 16.074-7.941l3.313-1.728c11.167-5.859 22.132-12.047 33.062-18.335l3.064-1.757c6.52-3.738 13.026-7.5 19.526-11.272 2.86-1.653 5.724-3.294 8.593-4.93 19.534-11.147 38.26-23.34 56.817-36.041l3.092-2.116c11.357-7.802 22.477-15.912 33.536-24.13 2.4-1.774 4.81-3.534 7.224-5.29 9.003-6.558 17.787-13.298 26.382-20.382 3.558-2.93 7.185-5.76 10.828-8.582 6.915-5.382 13.503-11.11 20.09-16.886 2.953-2.579 5.931-5.128 8.91-7.676l1.737-1.489c2.904-2.489 5.815-4.971 8.732-7.445 6.412-5.448 12.714-10.98 18.856-16.733a239.29 239.29 0 0 1 8.12-7.27c5.41-4.728 10.456-9.82 15.528-14.903l3.144-3.141c2.184-2.183 4.367-4.368 6.548-6.553a5608.75 5608.75 0 0 1 8.337-8.334c2.162-2.158 4.32-4.318 6.479-6.479a2951.65 2951.65 0 0 1 3.072-3.07c5.135-5.125 10.194-10.275 14.902-15.8 2.68-3.11 5.535-6.055 8.358-9.033 4.92-5.227 9.579-10.547 14.059-16.157 2.067-2.532 4.227-4.938 6.441-7.343 4.04-4.434 7.731-9.07 11.4-13.809 3.118-4.013 6.344-7.905 9.663-11.754 5.638-6.578 10.816-13.465 15.951-20.439 1.681-2.281 3.37-4.556 5.06-6.83 24.847-33.494 47.568-68.321 68.551-104.356l1.795-3.069a471.876 471.876 0 0 0 20.88-40.061c1.298-2.812 2.611-5.617 3.927-8.42 39.414-84.504 66.297-173.74 66.398-282.45l-.076-3.203c-.791-25.154-8.579-49.025-18.924-71.797l-.999-2.26c-4.651-10.437-10.524-19.12-18.001-27.74l-1.485-1.722c-4.473-5.145-8.582-9.805-14.515-13.278a440.122 440.122 0 0 1-4.125-3.34c-4.95-3.894-10.176-6.585-15.875-9.222l-3.06-1.43c-21.264-9.787-41.2-13.413-64.565-13.695l-5.413-.08c-2.732-.04-5.465-.077-8.198-.107-4.752-.057-9.489-.182-14.235-.429-23.536-1.212-44.669 3.613-67.295 9.705Zm-2688.175 119.27c-4.828 3.249-9.815 5.944-14.997 8.578a6006.3 6006.3 0 0 0-6.105 3.148l-3.353 1.73c-6.079 3.148-12.118 6.372-18.163 9.584-10.994 5.838-22.005 11.64-33.066 17.35-20.03 10.348-39.955 20.906-59.71 31.77a629.134 629.134 0 0 1-15.383 8.147c-12.058 6.199-23.62 13.112-35.2 20.159-5.641 3.408-11.335 6.73-17.037 10.035-8.527 4.996-16.776 10.42-25.045 15.827l-2.564 1.676a6807.45 6807.45 0 0 0-16.583 10.885c-1.901 1.25-3.803 2.5-5.706 3.748-11.586 7.601-23.053 15.328-34.323 23.392a823.442 823.442 0 0 1-7.423 5.208c-5.93 4.144-11.525 8.566-16.964 13.337-3.317 2.895-6.771 5.327-10.437 7.754a133.519 133.519 0 0 0-4.438 3.875l-2.332 2.102L3757 4221a409.446 409.446 0 0 1-3.625 3.25l-1.477 1.328c-1.898 1.422-1.898 1.422-5.144 3.219-4.111 2.302-7.594 5.179-11.191 8.203-5.397 4.465-10.863 8.78-16.5 12.938a397.066 397.066 0 0 0-34.301 28.542c-4.427 4.04-9.09 7.771-13.762 11.52a1227.58 1227.58 0 0 0-22.291 18.545c-1.151.98-2.304 1.96-3.457 2.937-7.334 6.217-14.534 12.544-21.592 19.073a288.47 288.47 0 0 1-6.597 5.882c-4.667 4.05-9.18 8.263-13.711 12.461-3.064 2.84-6.144 5.66-9.227 8.477-14.609 13.345-14.609 13.345-28.684 27.246a115.76 115.76 0 0 1-5.847 5.293c-5.867 5.092-11.295 10.638-16.776 16.138a2552.994 2552.994 0 0 1-5.64 5.634c-5.432 5.429-10.78 10.853-15.76 16.705-2.173 2.466-4.586 4.62-7.043 6.797-8.614 7.746-16.997 15.82-24.504 24.656-2.557 2.947-5.216 5.797-7.871 8.656-3.8 4.099-7.552 8.228-11.217 12.449L3469 4483l-1.73 2c-8.032 9.11-16.763 17.532-25.414 26.048-7.381 7.274-14.637 14.46-21.023 22.64-1.967 2.48-4.058 4.801-6.208 7.124-5.563 6.123-10.6 12.623-15.625 19.188l-1.482 1.932c-5.56 7.268-10.948 14.617-16.08 22.193-7.695 11.332-16.364 21.811-25.103 32.345-4.652 5.635-9.107 11.4-13.512 17.229-3.651 4.815-7.418 9.514-11.26 14.176-10.902 13.289-20.78 27.295-30.418 41.516a582.397 582.397 0 0 1-7.525 10.796 736.137 736.137 0 0 0-14.08 20.5 2350.746 2350.746 0 0 1-14.864 22.102l-3.678 5.414a3407.414 3407.414 0 0 1-5.547 8.146c-7.943 11.627-15.358 23.394-22.3 35.644-2.62 4.567-5.453 9.002-8.276 13.444-12.748 20.252-25.202 40.67-36.875 61.563l-1.822 3.25c-8.291 14.814-16.35 29.724-24.043 44.857-2.653 5.2-5.35 10.306-8.381 15.295-4.473 7.556-8.094 15.519-11.84 23.452-2.799 5.924-5.668 11.811-8.562 17.689l-1.414 2.874-2.854 5.802c-8.926 18.158-17.758 36.339-26.084 54.781l-.899 1.985c-18.56 41.012-35.862 82.463-50.414 125.078l-.845 2.475a1611.705 1611.705 0 0 0-20.905 66.087l-.952 3.245c-29.264 99.869-49.11 199.905-57.985 314.13l-.29 3.976c-2.258 34.24-1.913 68.606-1.898 102.899l.001 3.936c-.272 76.108-.272 76.108 5.894 151.9.304 2.379.603 4.758.9 7.138 2.863 29.48 2.863 29.48 9.393 58.151h-3c-1.147 103.383 24.934 203.922 90 292l1.39 1.854c7.76 10.298 15.828 20.3 24.512 29.833a301.428 301.428 0 0 1 5.285 6c9.831 11.278 20.067 22.455 31.426 32.208 2.507 2.21 4.944 4.484 7.38 6.772 5.535 5.196 11.126 10.228 17.058 14.974a466.49 466.49 0 0 1 6.554 5.343c9.076 7.51 18.41 14.548 28.031 21.344 2.41 1.705 4.811 3.424 7.212 5.145 11.743 8.371 23.796 16.096 36.152 23.527.884.535 1.768 1.07 2.68 1.62 59.474 35.914 123.146 63.432 189.32 84.38l2.303.733c94.69 30.122 193.474 46.608 375.277 53.337 4.234-.053 8.465-.074 12.7-.066 30.394.6 30.394.6 56.577-13.193 2.941-2.485 6.085-4.624 9.25-6.812 3.698-2.577 7.297-5.282 10.893-7.999l1.893-1.429c12.323-9.365 24.164-19.342 34.97-30.434a80.404 80.404 0 0 1 5.825-5.262c3.194-2.657 5.81-5.644 8.496-8.805 1.859-2.119 3.806-4.094 5.816-6.07 3.88-3.836 7.463-7.849 11-12l2.426-2.797c22.329-25.886 42.027-54.303 58.574-84.203l1.35-2.438c44.39-80.872 61.49-171.94 64.182-281.871l.065-3.438c.476-25.85.612-51.698.688-77.551.018-5.944.04-11.889.063-17.833.047-12.837.09-25.674.13-38.51.035-11.326.073-22.652.111-33.977.307-89.921.563-179.843.943-372.591l.054-30c.14-76.276.266-152.553.487-812.023a1323975.26 1323975.26 0 0 1-.022-193.095 6529591.384 6529591.384 0 0 0-.009-100.27c-.008-85.212-.02-170.424-.042-294.403-1.883 0-3.451 1.638-4.941 2.672ZM2178 1099h1008c.725 7.972 1.21 15.601 1.25 23.563l.063 3.267.015 3.111.028 2.803L3187 1134c-2.948 1.965-3.929 2.308-7.28 2.667l-2.636.296-2.873.299-6.172.691-3.292.361c-41.64 4.607-83.74 10.729-123.536 24.307-3.004 1.014-5.88 1.79-9.023 2.254-28.988 5.639-57.908 27.895-81.188 45.125l-2.143 1.585c-2.189 1.629-4.369 3.269-6.544 4.915l-1.905 1.434c-11.936 9.151-22.897 19.242-33.47 29.922a1640.348 1640.348 0 0 1-5.698 5.718c-5.955 5.973-11.81 11.965-17.24 18.426-.972 1.119-1.946 2.236-2.922 3.352a527.975 527.975 0 0 0-18.599 22.748 688.226 688.226 0 0 1-4.717 5.974c-13.068 16.48-25.397 33.604-35.762 51.926l-1.16 2.021c-25.515 44.509-46.135 94.492-56.204 144.878-.84 4.2-1.694 8.395-2.607 12.58-6.602 30.448-8.174 59.825-8.021 90.918.033 7.27.016 14.54-.001 21.81-.032 13.452-.034 26.904-.02 40.356.023 20.572-.014 41.143-.075 61.715a88849.372 88849.372 0 0 0-.311 141.1 861137.233 861137.233 0 0 0-.108 70.714 1111539.168 1111539.168 0 0 0-.227 160.61c-.153 113.073-.293 226.146-.791 719.137l-.015 16.23c-.073 80.47-.143 160.94-.523 1340.43l.001 36.997c.005 94.207.01 188.413.057 670.964a35780679.619 35780679.619 0 0 1 .026 242.713 6366171.61 6366171.61 0 0 1 .035 454.526v2.779c.003 54.305.01 108.61.018 162.915.013 82.922.025 165.843-.411 699.254-.03 10.684-.058 21.367-.083 32.05a28905.74 28905.74 0 0 1-.125 42.042c-.025 6.445-.047 12.89-.06 19.335-.013 5.734-.034 11.468-.064 17.202-.008 2.035-.014 4.07-.016 6.105-.011 9.559-.142 18.783-1.889 28.207-.512 2.898-.48 5.157.137 8.037L2750 6604l-1 1a59.76 59.76 0 0 0-.246 4.016l-.1 2.547c-.06 1.744-.117 3.489-.172 5.234-.192 4.815-.65 9.446-1.475 14.196-1.088 6.926-1.378 13.728-1.5 20.73-.046 1.964-.092 3.929-.14 5.893-.05 2.065-.096 4.13-.142 6.196-.606 26.49-1.954 52.765-4.885 79.11-.371 3.359-.733 6.718-1.095 10.078-2.966 27.472-6.216 54.895-10.12 82.25l-.458 3.223c-.422 2.953-.851 5.904-1.284 8.855l-.381 2.645c-.885 5.91-.885 5.91-2.002 7.027-1.666.043-3.334.04-5 0h-2l-1 8 1.023-1.531 1.352-1.969 1.336-1.969L2722 6858h2c.347 7.51-.962 14.567-2.313 21.938l-.646 3.708c-1.205 6.69-2.694 12.973-5.041 19.354l-5 1-1-5h-2l.625 2.75c.827 5.493-.555 10.867-1.625 16.25l.734-1.68 1.016-2.195.984-2.18c1.485-2.282 2.77-2.949 5.266-3.945-.18 8.547-1.594 16.66-3.375 25l-.634 3.04c-2.058 9.32-2.058 9.32-4.991 12.96h-2l-3-7c-1.04 4.857-1.04 4.857.063 9.563 1.294 3.366.292 5.2-1.063 8.437 1.991-2.986 2.941-5.597 4-9h2c1.126 3.377.85 4.66.11 8.078l-.653 3.02-.707 3.152-.66 3.105c-1.213 5.51-2.516 10.608-5.09 15.645-1.938 1.125-1.938 1.125-4 1-2.25-1.438-2.25-1.438-4-3l-1 7 8 2c-.593 7.814-2.457 15.029-4.563 22.563l-.998 3.634c-.807 2.936-1.62 5.87-2.439 8.803h-4l-1-10-1 1c.427 2.198.918 4.384 1.438 6.563 2.327 10.687 1.439 18.094-2.438 28.437l-2 3h-3l-.938-3.438c-.691-3.35-.691-3.35-2.062-4.562.331 4.139.695 6.57 3.125 10 1.875 3 1.875 3 1.813 6.625-.923 3.32-1.437 5.046-3.938 7.375-3.188 1.25-3.188 1.25-6 2v1h4c1.173 4.944.691 8.324-.688 13.188l-.56 2c-1.361 4.753-3.01 9.358-4.764 13.976-1.116 3.204-1.963 6.424-2.8 9.711-3.378 13.017-7.615 25.826-13.007 38.148-1.185 2.987-2.027 5.92-2.841 9.028-2.751 9.791-6.45 19.21-10.09 28.699l-2.288 5.998a9922.606 9922.606 0 0 1-3.524 9.227 2048.6 2048.6 0 0 0-7.34 19.517c-10.387 27.93-22.042 55.26-34.098 82.508l-1.149 2.599c-7.52 16.988-15.387 33.75-23.792 50.323-3.008 5.941-5.892 11.937-8.747 17.953-8.064 16.948-16.524 33.601-25.604 50.029-1.512 2.742-3.019 5.487-4.522 8.234-18.376 33.572-37.781 66.482-58.186 98.862l-3.223 5.129A2017.932 2017.932 0 0 1 2418 7613l-1.465 2.125c-6.569 9.503-13.425 18.752-20.456 27.917-4.57 5.96-9.072 11.966-13.517 18.02l-1.751 2.386-3.304 4.501c-5.997 8.16-12.127 16.188-18.507 24.051l-3.004 3.723c-5.63 6.965-11.309 13.88-17.117 20.699a531.075 531.075 0 0 0-8.254 9.953c-4.641 5.7-9.458 11.24-14.285 16.781-3.22 3.699-6.407 7.426-9.59 11.157a644.972 644.972 0 0 1-12.746 14.468 398.343 398.343 0 0 0-5.379 6.094c-9.22 10.55-18.917 20.527-28.875 30.375a4507.51 4507.51 0 0 0-7.328 7.266l-1.642 1.616a159.165 159.165 0 0 0-8.232 8.816c-3.423 3.954-7.029 7.678-10.732 11.368l-1.997 2a3323.693 3323.693 0 0 1-4.152 4.148c-2.1 2.093-4.193 4.192-6.286 6.292l-4.065 4.06-1.863 1.87a218.465 218.465 0 0 1-11.605 10.707c-3.11 2.703-6.098 5.534-9.098 8.357a1774.422 1774.422 0 0 1-16.918 15.664c-1.882 1.719-3.76 3.443-5.633 5.172-5.343 4.913-10.81 9.585-16.46 14.14-2.771 2.301-5.412 4.7-8.052 7.149-4.527 4.162-9.22 7.984-14.08 11.742-4.72 3.659-9.328 7.439-13.92 11.258-6.37 5.286-12.86 10.379-19.458 15.375a540.57 540.57 0 0 0-13.541 10.625c-9.04 7.293-18.363 14.203-27.688 21.125l-2.488 1.854c-10.046 7.486-20.188 14.783-30.556 21.815-2.675 1.82-5.336 3.66-7.998 5.499a2370.714 2370.714 0 0 1-8.05 5.526c-1.217.833-2.433 1.667-3.649 2.502-20.822 14.276-42.742 26.976-64.494 39.766-1.803 1.06-3.604 2.122-5.405 3.184-34.093 20.107-68.508 39.049-104.36 55.854l-1.918.902c-20.39 9.581-40.982 18.208-62.082 26.098-2.132.807-4.263 1.616-6.395 2.426A2159.337 2159.337 0 0 1 1742 8156l-2.697.999a1386.64 1386.64 0 0 1-20.146 7.241c-1.535.54-3.07 1.083-4.603 1.625-26.477 9.36-52.912 18.056-80.238 24.581-2.323.556-4.644 1.117-6.965 1.68-49.115 11.836-98.905 19.583-148.918 26.404-5.142.704-10.282 1.422-15.421 2.142-8.003 1.12-16.006 2.23-24.012 3.328 57.684-6.962 115.28-14.371 172.089-26.794 3.03-.654 5.801-1.206 8.911-1.206l-1 3a76.238 76.238 0 0 1-7.773 2.383l-2.464.653a940.566 940.566 0 0 1-8.138 2.089l-2.844.73c-89.426 22.941-180.88 31.513-272.781 37.145l-2.757.17c-10.658.647-21.252.966-31.93.892l-3.932-.013c-3.127-.012-6.254-.028-9.381-.049-1.265-9.703-1.112-19.36-1.063-29.125.006-1.737.01-3.474.014-5.21.011-4.222.028-8.444.049-12.665l3.418-.168a30461.16 30461.16 0 0 0 18.285-.902l5.335-.263c1.766-.088 3.531-.174 5.297-.26 4.13-.204 8.25-.44 12.372-.767l2.206-.168c1.947-.152 3.892-.319 5.837-.486 3.298.014 5.318.565 8.25 2.014l1-3 3.328-.445c5.898-.806 11.785-1.678 17.672-2.555l3.883-.57c58.862-8.714 115.001-26.677 168.117-53.43l2.964-1.48c19.3-9.675 37.409-21.085 55.036-33.52l5.438-3.813 2.363-1.667c2.078-1.436 4.193-2.79 6.324-4.145 6.702-4.432 12.797-9.709 18.986-14.818 2.515-2.073 5.047-4.126 7.576-6.182 5.596-4.585 11.12-9.252 16.626-13.942a1116.98 1116.98 0 0 1 5.027-4.238c16.63-14.017 32.006-29.374 47.357-44.761 2.462-2.469 4.93-4.933 7.398-7.395 2.4-2.396 4.797-4.796 7.194-7.195l2.645-2.64c4.36-4.377 8.586-8.812 12.605-13.505 2.21-2.57 4.526-5.032 6.836-7.511a273.285 273.285 0 0 0 12.137-14.11c1.859-2.3 3.734-4.577 5.633-6.844 13.188-15.779 25.294-32.334 37.275-49.038a1462.17 1462.17 0 0 1 4.717-6.512c13.498-18.56 26.446-37.468 39.176-56.559l1.66-2.488c10.352-15.53 20.62-31.1 30.277-47.074l1.077-1.78c19.519-32.263 37.639-65.35 54.368-99.146a1556.27 1556.27 0 0 1 5.672-11.305c7.618-15.09 14.988-30.265 22.022-45.638 1.853-4.048 3.72-8.09 5.595-12.127 14.301-30.792 28.206-61.72 40.016-93.567.764-2.048 1.53-4.095 2.295-6.142 3.25-8.695 6.48-17.397 9.69-26.107.734-1.99 1.47-3.98 2.209-5.969a1934.53 1934.53 0 0 0 19.578-55.307l2.047-6.07c18.165-53.847 34.186-108.247 48.448-163.256l.9-3.473c.55-2.12 1.096-4.239 1.64-6.359 4.437-17.183 4.437-17.183 7.193-21.317h2c1.547-5.278 2.134-8.559 1-14-.73-8.03 1.775-15.37 4-23l4 1v2h2l-.07-2.703-.055-3.547-.07-3.516c.185-3.062.587-4.676 2.195-7.234l-2-1v3h-2c.405-8.665 1.61-16.658 4-25 2.867.573 3.861.861 6 3l-.07-2.379c-.103-5.969.024-10.995 2.07-16.621-1.84 1.84-2.224 4.569-3 7h-2c-1.214-3.643-.671-5.273.215-8.98l.83-3.526.892-3.681.881-3.717c.72-3.034 1.448-6.066 2.182-9.096l4-1 1 4h2l-.875-3.813-.492-2.144c-.613-2.32-.613-2.32-2.633-5.043.078-2.878.282-5.589.625-8.438l.283-2.511c2.845-23.557 2.845-23.557 6.092-30.051h3l2 7 3-19-4 10h-3c-.232-6.771.661-13.09 1.793-19.758l.565-3.423c.603-3.65 1.216-7.297 1.83-10.944l1.248-7.496c.617-3.708 1.236-7.417 1.857-11.125 1.136-6.788 2.246-13.58 3.312-20.379l.67-4.21c.388-2.449.768-4.898 1.14-7.35l.515-3.198.413-2.668c.782-2.914 1.858-5.029 3.657-7.449h3l1 8 2-15-2 5-5-1c-.978-3.852-.929-6.774-.285-10.684.28-1.798.28-1.798.568-3.632l.32-2.005c11.707-74.133 17.902-149.715 21.663-224.634.38-7.319.844-14.618 1.457-21.921 3.105-38.238 2.837-76.552 2.928-114.886.018-7.854.044-15.708.073-23.563.318-87.077.367-174.155.46-451.023a812727.276 812727.276 0 0 1 .026-141.449l.018-78.287v-3.788c.013-59.869.023-119.737.032-179.605a4247785.693 4247785.693 0 0 1 .069-359.981 23458257.268 23458257.268 0 0 0 .039-181.724 14958343.176 14958343.176 0 0 0 .117-610.23 83499237.154 83499237.154 0 0 1 .07-378.058 16999476.565 16999476.565 0 0 1 .137-672.482v-4.157c.018-82.343.033-164.687.046-247.03.02-126.03.042-252.058.666-1252.714.028-23.754.055-47.508.08-71.262l.004-3.357.014-13.371a488095.641 488095.641 0 0 1 .162-134.78l.004-2.905c.019-14.203.035-28.406.05-42.609.016-15.779.036-31.558.06-47.338.013-8.67.024-17.34.031-26.011.005-5.77.013-11.541.024-17.312.007-3.253.01-6.507.012-9.76.005-13.699.18-27.381.613-41.073l.121-3.894c.308-9.024.896-17.968 1.986-26.931.252-2.078.482-4.158.71-6.24 2.433-21.502 6.93-42.466 12.225-63.429l.929-3.695c10.556-41.841 24.89-81.284 43.571-120.18l1.365-2.863c7.108-14.839 15.138-29.053 23.635-43.137l1.419-2.353c13.964-23.016 30.065-44.34 47.506-64.82a398.561 398.561 0 0 0 8.262-10.077c9.042-11.085 19.231-21.243 29.313-31.375l1.92-1.934c4.363-4.348 8.907-8.431 13.58-12.441l1.576-1.37c9.16-7.965 18.706-15.364 28.424-22.63l2.208-1.666c12.822-9.645 26.204-17.684 40.296-25.322l2.75-1.496a649.98 649.98 0 0 1 5.25-2.813l2.398-1.293 2.11-1.12c2.32-1.505 4.095-3.283 5.988-5.29l-3.672.076c-80.17 1.639-160.35 2.194-262.328 2.924-.348-3.29-.676-6.582-1-9.875-.095-.898-.19-1.797-.29-2.723-.892-9.249-.71-17.954-.71-27.402Zm-10 5572-1 4 2-4h-1Zm564 72 1 3Zm-1 5v5h1v-5h-1Zm-1 7 1 3Zm-566 34 1 3Zm-1 6v11h1v-11h-1Zm-1 11c-.656 7.798-1.309 15.596-1.956 23.394-.3 3.622-.603 7.244-.908 10.865a6022.75 6022.75 0 0 0-.875 10.504c-.164 1.973-.331 3.945-.499 5.917-.53 6.466-.885 12.832-.762 19.32h1c4.087-34.923 4.087-34.923 5-70h-1Zm559 13v5h1v-5h-1Zm-6 49 1 2Zm-559 9v7h1v-7h-1Zm-1 9v7h1v-7h-1Zm-1 8v8h1v-8h-1Zm-1 8v9h1v-9h-1Zm-1 9v10h1v-10h-1Zm-1 10v8h1v-8h-1Zm-9 62 1 4Zm-1 4 1 2Zm-1 8c-2.538 2.538-2.46 8.27-3.063 11.688l-.555 3.15c-1.309 7.822-1.877 15.226-1.382 23.162h1l.244-1.981c1.482-12.022 2.963-24.039 4.756-36.019h-1Zm-8 47c-1.478 2.957-1.06 5.742-1 9h1l1-9h-1Zm-12 53c-1.102 4.41-1.077 8.484-1 13h1c1.102-4.41 1.077-8.484 1-13h-1Zm540 9c-1.296 1.066-1.296 1.066-1.063 3.563L2659 7110h2l1-5-2-1ZM1360.41 8228.023l-4.675.322c-3.243.224-6.486.452-9.729.681-4.112.292-8.224.574-12.336.854-3.212.22-6.424.444-9.635.67-1.514.105-3.028.21-4.543.313A387.076 387.076 0 0 0 1290 8234v1c18.861-.573 37.664-1.59 56.49-2.865 2.715-.182 5.43-.361 8.145-.54 3.299-.218 6.598-.437 9.896-.657 1.79-.12 1.79-.12 3.615-.24 3.285-.223 6.57-.459 9.854-.698l3.21-.21 3.007-.224c.876-.06 1.752-.122 2.655-.185 2.337-.21 2.337-.21 4.128-2.381-10.248-.149-20.374.298-30.59 1.023Z"
        fill="#ff2828" />
</svg>