<svg xmlns="http://www.w3.org/2000/svg" xmlns:xlink="http://www.w3.org/1999/xlink" width="500" zoomAndPan="magnify" viewBox="0 0 375 374.999991" height="500" preserveAspectRatio="xMidYMid meet" version="1.0"><defs><g/></defs><rect x="-37.5" width="450" fill="#ffffff" y="-37.499999" height="449.999989" fill-opacity="1"/><rect x="-37.5" width="450" fill="#ffffff" y="-37.499999" height="449.999989" fill-opacity="1"/><g fill="#2b2b2b" fill-opacity="1"><g transform="translate(129.358004, 217.992138)"><g><path d="M -11.28125 30.6875 C -7.757812 30.6875 -4.570312 29.304688 -1.71875 26.546875 C 1.132812 23.785156 3.414062 20.070312 5.125 15.40625 C 6.84375 10.75 7.703125 5.613281 7.703125 0 L 7.703125 -90.0625 C 7.703125 -92.0625 8.273438 -93.894531 9.421875 -95.5625 C 10.566406 -97.226562 12.039062 -98.441406 13.84375 -99.203125 L 8.140625 -99.203125 C 7.847656 -99.203125 7.703125 -99.296875 7.703125 -99.484375 C 7.703125 -99.765625 7.847656 -99.90625 8.140625 -99.90625 L 17.5625 -99.90625 C 17.5625 -99.90625 17.609375 -99.90625 17.703125 -99.90625 L 29.265625 -99.90625 C 29.453125 -99.90625 29.546875 -99.765625 29.546875 -99.484375 C 29.546875 -99.296875 29.453125 -99.203125 29.265625 -99.203125 C 26.691406 -99.203125 24.523438 -98.296875 22.765625 -96.484375 C 21.003906 -94.679688 20.125 -92.539062 20.125 -90.0625 L 20.125 0 C 20.125 5.800781 18.695312 11.082031 15.84375 15.84375 C 12.988281 20.601562 9.179688 24.382812 4.421875 27.1875 C -0.335938 30 -5.570312 31.40625 -11.28125 31.40625 C -11.5625 31.40625 -11.703125 31.257812 -11.703125 30.96875 C -11.703125 30.78125 -11.5625 30.6875 -11.28125 30.6875 Z M -11.28125 30.6875 "/></g></g></g><g fill="#2b2b2b" fill-opacity="1"><g transform="translate(161.899771, 217.992138)"><g><path d="M 19.125 -99.90625 L 54.234375 -99.90625 C 58.804688 -99.90625 63.019531 -98.765625 66.875 -96.484375 C 70.726562 -94.203125 73.796875 -91.15625 76.078125 -87.34375 C 78.359375 -83.539062 79.5 -79.3125 79.5 -74.65625 C 79.5 -69.988281 78.359375 -65.75 76.078125 -61.9375 C 73.796875 -58.132812 70.726562 -55.09375 66.875 -52.8125 C 63.019531 -50.53125 58.804688 -49.390625 54.234375 -49.390625 L 28.96875 -49.390625 L 28.96875 -9.5625 C 28.96875 -6.988281 29.847656 -4.820312 31.609375 -3.0625 C 33.367188 -1.300781 35.535156 -0.421875 38.109375 -0.421875 C 38.296875 -0.421875 38.390625 -0.28125 38.390625 0 C 38.390625 0.28125 38.296875 0.421875 38.109375 0.421875 L 7.5625 0.421875 C 7.28125 0.421875 7.140625 0.28125 7.140625 0 C 7.140625 -0.28125 7.28125 -0.421875 7.5625 -0.421875 C 10.039062 -0.421875 12.179688 -1.300781 13.984375 -3.0625 C 15.796875 -4.820312 16.703125 -6.988281 16.703125 -9.5625 L 16.703125 -90.0625 C 16.703125 -92.539062 15.796875 -94.679688 13.984375 -96.484375 C 12.179688 -98.296875 10.039062 -99.203125 7.5625 -99.203125 C 7.28125 -99.203125 7.140625 -99.296875 7.140625 -99.484375 C 7.140625 -99.765625 7.28125 -99.90625 7.5625 -99.90625 Z M 42.53125 -50.09375 L 54.234375 -50.09375 C 56.617188 -50.09375 58.785156 -51.210938 60.734375 -53.453125 C 62.679688 -55.691406 64.222656 -58.664062 65.359375 -62.375 C 66.503906 -66.082031 67.078125 -70.175781 67.078125 -74.65625 C 67.078125 -79.125 66.503906 -83.210938 65.359375 -86.921875 C 64.222656 -90.628906 62.679688 -93.601562 60.734375 -95.84375 C 58.785156 -98.082031 56.617188 -99.203125 54.234375 -99.203125 L 22.84375 -99.203125 C 24.644531 -98.441406 26.113281 -97.226562 27.25 -95.5625 C 28.394531 -93.894531 28.96875 -92.0625 28.96875 -90.0625 L 28.96875 -50.09375 Z M 42.53125 -50.09375 "/></g></g></g><g fill="#2b2b2b" fill-opacity="1"><g transform="translate(115.439469, 260.595149)"><g><path d="M 79.109375 -77.515625 C 79.109375 -75.566406 78.753906 -73.128906 78.046875 -70.203125 C 77.335938 -67.273438 76.25 -64.21875 74.78125 -61.03125 C 73.320312 -57.84375 71.503906 -54.851562 69.328125 -52.0625 C 67.160156 -49.269531 64.632812 -47.007812 61.75 -45.28125 C 58.875 -43.550781 55.617188 -42.726562 51.984375 -42.8125 C 47.285156 -42.8125 43.539062 -44.207031 40.75 -47 C 37.957031 -49.789062 36.5625 -53.535156 36.5625 -58.234375 C 36.5625 -62.222656 37.671875 -66.253906 39.890625 -70.328125 C 42.109375 -74.410156 45.054688 -78.160156 48.734375 -81.578125 C 52.410156 -84.992188 56.53125 -87.71875 61.09375 -89.75 C 65.664062 -91.789062 70.300781 -92.8125 75 -92.8125 C 79.425781 -92.8125 82.75 -92.164062 84.96875 -90.875 C 87.1875 -89.59375 88.800781 -87.976562 89.8125 -86.03125 C 90.832031 -84.082031 91.628906 -82.109375 92.203125 -80.109375 C 92.785156 -78.117188 93.628906 -76.390625 94.734375 -74.921875 C 95.847656 -73.460938 97.644531 -72.597656 100.125 -72.328125 C 101.101562 -74.015625 102.410156 -76.007812 104.046875 -78.3125 C 105.691406 -80.625 107.550781 -82.882812 109.625 -85.09375 C 111.707031 -87.3125 113.878906 -89.148438 116.140625 -90.609375 C 118.398438 -92.078125 120.550781 -92.8125 122.59375 -92.8125 C 124.101562 -92.8125 125.34375 -92.410156 126.3125 -91.609375 C 127.289062 -90.816406 127.78125 -89.445312 127.78125 -87.5 C 127.78125 -85.363281 126.738281 -82.988281 124.65625 -80.375 C 122.570312 -77.757812 119.800781 -75.453125 116.34375 -73.453125 C 112.882812 -71.460938 109.160156 -70.289062 105.171875 -69.9375 C 102.515625 -57.613281 98.414062 -45.710938 92.875 -34.234375 C 87.332031 -22.753906 80.53125 -12.140625 72.46875 -2.390625 L 72.734375 -2.125 C 81.597656 -8.15625 89.726562 -15.046875 97.125 -22.796875 C 104.53125 -30.554688 111.578125 -38.578125 118.265625 -46.859375 C 124.960938 -55.148438 131.632812 -63.109375 138.28125 -70.734375 C 145.195312 -78.628906 150.691406 -84.28125 154.765625 -87.6875 C 158.847656 -91.101562 162.085938 -92.8125 164.484375 -92.8125 C 165.992188 -92.8125 167.300781 -92.300781 168.40625 -91.28125 C 169.507812 -90.257812 170.0625 -89.039062 170.0625 -87.625 C 170.0625 -86.46875 169.6875 -85.359375 168.9375 -84.296875 C 168.1875 -83.234375 167.1875 -82.703125 165.9375 -82.703125 C 164.613281 -82.703125 163.617188 -82.988281 162.953125 -83.5625 C 162.285156 -84.144531 161.640625 -84.722656 161.015625 -85.296875 C 160.398438 -85.867188 159.425781 -86.15625 158.09375 -86.15625 C 156.675781 -86.15625 154.75 -85.160156 152.3125 -83.171875 C 149.875 -81.179688 147.101562 -78.5 144 -75.125 C 140.894531 -71.757812 137.59375 -67.96875 134.09375 -63.75 C 130.59375 -59.539062 127.003906 -55.21875 123.328125 -50.78125 C 119.648438 -46.351562 116.035156 -42.054688 112.484375 -37.890625 C 104.515625 -28.671875 97.269531 -21.09375 90.75 -15.15625 C 84.238281 -9.21875 78.960938 -4.804688 74.921875 -1.921875 C 70.890625 0.953125 68.609375 2.390625 68.078125 2.390625 C 67.285156 2.390625 66.890625 2.035156 66.890625 1.328125 C 66.890625 0.796875 67.085938 0.394531 67.484375 0.125 C 67.878906 -0.132812 68.390625 -0.53125 69.015625 -1.0625 C 71.578125 -3.101562 73.988281 -6.296875 76.25 -10.640625 C 78.507812 -14.984375 80.613281 -19.925781 82.5625 -25.46875 C 84.519531 -31.007812 86.40625 -36.632812 88.21875 -42.34375 C 90.039062 -48.0625 91.835938 -53.378906 93.609375 -58.296875 C 95.378906 -63.222656 97.195312 -67.191406 99.0625 -70.203125 C 94.625 -71.179688 91.273438 -72.507812 89.015625 -74.1875 C 86.753906 -75.875 85.09375 -77.671875 84.03125 -79.578125 C 82.96875 -81.484375 82.0625 -83.28125 81.3125 -84.96875 C 80.5625 -86.65625 79.5625 -88.03125 78.3125 -89.09375 C 77.070312 -90.15625 75.125 -90.6875 72.46875 -90.6875 C 68.925781 -90.6875 65.179688 -89.820312 61.234375 -88.09375 C 57.285156 -86.363281 53.601562 -83.988281 50.1875 -80.96875 C 46.78125 -77.957031 44.007812 -74.523438 41.875 -70.671875 C 39.75 -66.816406 38.6875 -62.804688 38.6875 -58.640625 C 38.6875 -54.734375 39.570312 -51.691406 41.34375 -49.515625 C 43.125 -47.347656 45.742188 -46.265625 49.203125 -46.265625 C 52.566406 -46.265625 56.109375 -47.375 59.828125 -49.59375 C 63.554688 -51.8125 66.75 -54.867188 69.40625 -58.765625 C 71.800781 -62.316406 73.570312 -65.578125 74.71875 -68.546875 C 75.875 -71.515625 76.671875 -73.90625 77.109375 -75.71875 C 77.554688 -77.539062 77.914062 -78.453125 78.1875 -78.453125 C 78.800781 -78.453125 79.109375 -78.140625 79.109375 -77.515625 Z M 126.1875 -88.15625 C 126.1875 -89.039062 125.921875 -89.769531 125.390625 -90.34375 C 124.859375 -90.925781 123.972656 -91.21875 122.734375 -91.21875 C 120.785156 -91.21875 118.878906 -90.550781 117.015625 -89.21875 C 115.148438 -87.894531 113.460938 -86.191406 111.953125 -84.109375 C 110.453125 -82.023438 109.144531 -79.894531 108.03125 -77.71875 C 106.925781 -75.550781 106.148438 -73.664062 105.703125 -72.0625 C 109.691406 -72.414062 113.21875 -73.457031 116.28125 -75.1875 C 119.34375 -76.914062 121.757812 -78.953125 123.53125 -81.296875 C 125.300781 -83.648438 126.1875 -85.9375 126.1875 -88.15625 Z M 126.1875 -88.15625 "/></g></g></g><g fill="#3d3d3d" fill-opacity="1"><g transform="translate(248.542284, 147.019771)"><g><path d="M 2.46875 0 L 0.203125 -5.875 L 1.03125 -5.875 L 2.875 -0.828125 L 4.75 -5.875 L 5.5625 -5.875 L 3.296875 0 Z M 2.46875 0 "/></g></g></g><g fill="#3d3d3d" fill-opacity="1"><g transform="translate(255.617115, 147.019771)"><g><path d="M 0.640625 0 L 0.640625 -5.875 L 1.40625 -5.875 L 1.40625 0 Z M 0.640625 0 "/></g></g></g><g fill="#3d3d3d" fill-opacity="1"><g transform="translate(258.967892, 147.019771)"><g><path d="M 2.46875 0 L 0.203125 -5.875 L 1.03125 -5.875 L 2.875 -0.828125 L 4.75 -5.875 L 5.5625 -5.875 L 3.296875 0 Z M 2.46875 0 "/></g></g></g><g fill="#3d3d3d" fill-opacity="1"><g transform="translate(266.042722, 147.019771)"><g><path d="M 0.640625 0 L 0.640625 -5.875 L 1.40625 -5.875 L 1.40625 0 Z M 0.640625 0 "/></g></g></g><g fill="#3d3d3d" fill-opacity="1"><g transform="translate(269.393499, 147.019771)"><g><path d="M 4.6875 0 L 4.234375 -1.296875 L 1.625 -1.296875 L 1.15625 0 L 0.375 0 L 2.515625 -5.875 L 3.359375 -5.875 L 5.484375 0 Z M 1.84375 -1.90625 L 4.015625 -1.90625 L 2.921875 -4.9375 Z M 1.84375 -1.90625 "/></g></g></g><g fill="#3d3d3d" fill-opacity="1"><g transform="translate(276.561634, 147.019771)"><g><path d="M 4.515625 -5.875 L 5.28125 -5.875 L 5.28125 0 L 4.515625 0 L 1.40625 -4.671875 L 1.40625 0 L 0.640625 0 L 0.640625 -5.875 L 1.40625 -5.875 L 4.515625 -1.21875 Z M 4.515625 -5.875 "/></g></g></g><g fill="#3d3d3d" fill-opacity="1"><g transform="translate(283.78915, 147.019771)"><g><path d="M 4.6875 0 L 4.234375 -1.296875 L 1.625 -1.296875 L 1.15625 0 L 0.375 0 L 2.515625 -5.875 L 3.359375 -5.875 L 5.484375 0 Z M 1.84375 -1.90625 L 4.015625 -1.90625 L 2.921875 -4.9375 Z M 1.84375 -1.90625 "/></g></g></g><g fill="#3d3d3d" fill-opacity="1"><g transform="translate(290.957285, 147.019771)"><g/></g></g><g fill="#3d3d3d" fill-opacity="1"><g transform="translate(294.808562, 147.019771)"><g><path d="M 3.703125 -1.1875 C 3.609375 -0.820312 3.40625 -0.519531 3.09375 -0.28125 C 2.789062 -0.0507812 2.421875 0.0625 1.984375 0.0625 C 1.546875 0.0625 1.160156 -0.0976562 0.828125 -0.421875 C 0.492188 -0.742188 0.328125 -1.15625 0.328125 -1.65625 C 0.328125 -2.164062 0.488281 -2.582031 0.8125 -2.90625 C 1.132812 -3.226562 1.53125 -3.390625 2 -3.390625 C 2.0625 -3.390625 2.132812 -3.363281 2.21875 -3.3125 L 1.890625 -3.5625 C 1.492188 -4.070312 1.296875 -4.515625 1.296875 -4.890625 C 1.296875 -5.273438 1.429688 -5.601562 1.703125 -5.875 C 1.984375 -6.144531 2.351562 -6.28125 2.8125 -6.28125 C 3.28125 -6.28125 3.65625 -6.144531 3.9375 -5.875 C 4.21875 -5.613281 4.359375 -5.304688 4.359375 -4.953125 C 4.359375 -4.828125 4.335938 -4.695312 4.296875 -4.5625 L 3.515625 -4.5625 C 3.546875 -4.65625 3.5625 -4.785156 3.5625 -4.953125 C 3.5625 -5.128906 3.488281 -5.285156 3.34375 -5.421875 C 3.207031 -5.566406 3.03125 -5.640625 2.8125 -5.640625 C 2.601562 -5.640625 2.425781 -5.566406 2.28125 -5.421875 C 2.144531 -5.285156 2.078125 -5.097656 2.078125 -4.859375 C 2.078125 -4.628906 2.207031 -4.34375 2.46875 -4 L 5.546875 0 L 4.59375 0 Z M 1.328125 -0.875 C 1.523438 -0.664062 1.765625 -0.5625 2.046875 -0.5625 C 2.335938 -0.5625 2.582031 -0.664062 2.78125 -0.875 C 2.988281 -1.09375 3.09375 -1.351562 3.09375 -1.65625 C 3.09375 -1.96875 2.988281 -2.234375 2.78125 -2.453125 C 2.582031 -2.671875 2.335938 -2.78125 2.046875 -2.78125 C 1.765625 -2.78125 1.523438 -2.671875 1.328125 -2.453125 C 1.128906 -2.242188 1.03125 -1.984375 1.03125 -1.671875 C 1.03125 -1.359375 1.128906 -1.09375 1.328125 -0.875 Z M 1.328125 -0.875 "/></g></g></g><g fill="#3d3d3d" fill-opacity="1"><g transform="translate(248.542284, 156.916553)"><g><path d="M 2.9375 -1.53125 L 2.9375 -5.875 L 3.703125 -5.875 L 3.703125 -1.53125 C 3.703125 -1.050781 3.550781 -0.664062 3.25 -0.375 C 2.957031 -0.0820312 2.5625 0.0625 2.0625 0.0625 C 1.570312 0.0625 1.175781 -0.0820312 0.875 -0.375 C 0.570312 -0.664062 0.421875 -1.050781 0.421875 -1.53125 L 1.21875 -1.53125 C 1.21875 -1.257812 1.285156 -1.039062 1.421875 -0.875 C 1.566406 -0.707031 1.785156 -0.625 2.078125 -0.625 C 2.367188 -0.625 2.582031 -0.707031 2.71875 -0.875 C 2.863281 -1.050781 2.9375 -1.269531 2.9375 -1.53125 Z M 2.9375 -1.53125 "/></g></g></g><g fill="#3d3d3d" fill-opacity="1"><g transform="translate(254.531289, 156.916553)"><g><path d="M 0.625 -2.0625 L 0.625 -5.875 L 1.40625 -5.875 L 1.40625 -2.0625 C 1.40625 -1.570312 1.535156 -1.207031 1.796875 -0.96875 C 2.054688 -0.726562 2.410156 -0.609375 2.859375 -0.609375 C 3.304688 -0.609375 3.660156 -0.726562 3.921875 -0.96875 C 4.179688 -1.207031 4.3125 -1.570312 4.3125 -2.0625 L 4.3125 -5.875 L 5.09375 -5.875 L 5.09375 -2.0625 C 5.09375 -1.375 4.878906 -0.847656 4.453125 -0.484375 C 4.035156 -0.117188 3.503906 0.0625 2.859375 0.0625 C 2.210938 0.0625 1.675781 -0.117188 1.25 -0.484375 C 0.832031 -0.847656 0.625 -1.375 0.625 -2.0625 Z M 0.625 -2.0625 "/></g></g></g><g fill="#3d3d3d" fill-opacity="1"><g transform="translate(261.546728, 156.916553)"><g><path d="M 4.6875 0 L 4.234375 -1.296875 L 1.625 -1.296875 L 1.15625 0 L 0.375 0 L 2.515625 -5.875 L 3.359375 -5.875 L 5.484375 0 Z M 1.84375 -1.90625 L 4.015625 -1.90625 L 2.921875 -4.9375 Z M 1.84375 -1.90625 "/></g></g></g><g fill="#3d3d3d" fill-opacity="1"><g transform="translate(268.714863, 156.916553)"><g><path d="M 4.515625 -5.875 L 5.28125 -5.875 L 5.28125 0 L 4.515625 0 L 1.40625 -4.671875 L 1.40625 0 L 0.640625 0 L 0.640625 -5.875 L 1.40625 -5.875 L 4.515625 -1.21875 Z M 4.515625 -5.875 "/></g></g></g><g fill="#3d3d3d" fill-opacity="1"><g transform="translate(275.942379, 156.916553)"><g/></g></g><g fill="#3d3d3d" fill-opacity="1"><g transform="translate(279.793656, 156.916553)"><g><path d="M 2.546875 -5.875 C 3.203125 -5.875 3.703125 -5.710938 4.046875 -5.390625 C 4.398438 -5.066406 4.578125 -4.65625 4.578125 -4.15625 C 4.578125 -3.65625 4.410156 -3.238281 4.078125 -2.90625 C 3.742188 -2.582031 3.234375 -2.421875 2.546875 -2.421875 L 1.40625 -2.421875 L 1.40625 0 L 0.640625 0 L 0.640625 -5.875 Z M 1.40625 -3.03125 L 2.546875 -3.03125 C 2.972656 -3.03125 3.285156 -3.128906 3.484375 -3.328125 C 3.691406 -3.523438 3.796875 -3.800781 3.796875 -4.15625 C 3.796875 -4.894531 3.378906 -5.265625 2.546875 -5.265625 L 1.40625 -5.265625 Z M 1.40625 -3.03125 "/></g></g></g><g fill="#3d3d3d" fill-opacity="1"><g transform="translate(286.003215, 156.916553)"><g><path d="M 4.6875 0 L 4.234375 -1.296875 L 1.625 -1.296875 L 1.15625 0 L 0.375 0 L 2.515625 -5.875 L 3.359375 -5.875 L 5.484375 0 Z M 1.84375 -1.90625 L 4.015625 -1.90625 L 2.921875 -4.9375 Z M 1.84375 -1.90625 "/></g></g></g><g fill="#3d3d3d" fill-opacity="1"><g transform="translate(293.17135, 156.916553)"><g><path d="M 0.640625 -5.875 L 2.734375 -5.875 C 3.335938 -5.875 3.800781 -5.726562 4.125 -5.4375 C 4.457031 -5.144531 4.625 -4.769531 4.625 -4.3125 C 4.625 -3.65625 4.25 -3.222656 3.5 -3.015625 C 3.875 -2.953125 4.175781 -2.78125 4.40625 -2.5 C 4.644531 -2.226562 4.765625 -1.910156 4.765625 -1.546875 C 4.765625 -1.097656 4.585938 -0.726562 4.234375 -0.4375 C 3.890625 -0.144531 3.425781 0 2.84375 0 L 0.640625 0 Z M 1.40625 -5.265625 L 1.40625 -3.328125 L 2.703125 -3.328125 C 3.054688 -3.328125 3.332031 -3.410156 3.53125 -3.578125 C 3.738281 -3.753906 3.84375 -3.988281 3.84375 -4.28125 C 3.84375 -4.582031 3.738281 -4.820312 3.53125 -5 C 3.332031 -5.175781 3.054688 -5.265625 2.703125 -5.265625 Z M 1.40625 -0.609375 L 2.796875 -0.609375 C 3.171875 -0.609375 3.460938 -0.703125 3.671875 -0.890625 C 3.890625 -1.078125 4 -1.332031 4 -1.65625 C 4 -1.976562 3.882812 -2.234375 3.65625 -2.421875 C 3.425781 -2.609375 3.117188 -2.703125 2.734375 -2.703125 L 1.40625 -2.703125 Z M 1.40625 -0.609375 "/></g></g></g><g fill="#3d3d3d" fill-opacity="1"><g transform="translate(299.669333, 156.916553)"><g><path d="M 0.640625 -5.875 L 1.40625 -5.875 L 1.40625 -0.59375 L 3.46875 -0.59375 L 3.46875 0 L 0.640625 0 Z M 0.640625 -5.875 "/></g></g></g><g fill="#3d3d3d" fill-opacity="1"><g transform="translate(304.614925, 156.916553)"><g><path d="M 4.890625 -1.265625 C 5.304688 -1.691406 5.515625 -2.25 5.515625 -2.9375 C 5.515625 -3.632812 5.304688 -4.191406 4.890625 -4.609375 C 4.484375 -5.035156 3.957031 -5.25 3.3125 -5.25 C 2.675781 -5.25 2.148438 -5.035156 1.734375 -4.609375 C 1.316406 -4.191406 1.109375 -3.632812 1.109375 -2.9375 C 1.109375 -2.25 1.316406 -1.691406 1.734375 -1.265625 C 2.148438 -0.835938 2.675781 -0.625 3.3125 -0.625 C 3.957031 -0.625 4.484375 -0.835938 4.890625 -1.265625 Z M 3.328125 0.0625 C 2.484375 0.0625 1.769531 -0.21875 1.1875 -0.78125 C 0.613281 -1.351562 0.328125 -2.070312 0.328125 -2.9375 C 0.328125 -3.8125 0.613281 -4.53125 1.1875 -5.09375 C 1.769531 -5.65625 2.484375 -5.9375 3.328125 -5.9375 C 4.171875 -5.9375 4.878906 -5.65625 5.453125 -5.09375 C 6.023438 -4.53125 6.3125 -3.8125 6.3125 -2.9375 C 6.3125 -2.070312 6.023438 -1.351562 5.453125 -0.78125 C 4.878906 -0.21875 4.171875 0.0625 3.328125 0.0625 Z M 3.328125 0.0625 "/></g></g></g><g fill="#3d3d3d" fill-opacity="1"><g transform="translate(154.514868, 231.202725)"><g><path d="M 0.34375 -3.203125 C 0.375 -3.535156 0.507812 -3.796875 0.75 -3.984375 C 1 -4.171875 1.316406 -4.265625 1.703125 -4.265625 C 2.085938 -4.265625 2.390625 -4.160156 2.609375 -3.953125 C 2.828125 -3.753906 2.9375 -3.5 2.9375 -3.1875 C 2.9375 -2.96875 2.875 -2.769531 2.75 -2.59375 C 2.625 -2.425781 2.460938 -2.3125 2.265625 -2.25 L 2.265625 -2.21875 C 2.503906 -2.15625 2.6875 -2.03125 2.8125 -1.84375 C 2.945312 -1.65625 3.015625 -1.40625 3.015625 -1.09375 C 3.015625 -0.78125 2.898438 -0.515625 2.671875 -0.296875 C 2.441406 -0.0859375 2.125 0.015625 1.71875 0.015625 C 1.3125 0.015625 0.976562 -0.0820312 0.71875 -0.28125 C 0.457031 -0.488281 0.316406 -0.78125 0.296875 -1.15625 L 0.78125 -1.15625 C 0.800781 -0.9375 0.890625 -0.757812 1.046875 -0.625 C 1.210938 -0.488281 1.429688 -0.421875 1.703125 -0.421875 C 1.972656 -0.421875 2.175781 -0.488281 2.3125 -0.625 C 2.457031 -0.769531 2.53125 -0.957031 2.53125 -1.1875 C 2.53125 -1.488281 2.4375 -1.703125 2.25 -1.828125 C 2.0625 -1.953125 1.769531 -2.015625 1.375 -2.015625 L 1.234375 -2.015625 L 1.234375 -2.453125 L 1.375 -2.453125 C 2.09375 -2.453125 2.453125 -2.679688 2.453125 -3.140625 C 2.453125 -3.347656 2.382812 -3.507812 2.25 -3.625 C 2.113281 -3.75 1.921875 -3.8125 1.671875 -3.8125 C 1.429688 -3.8125 1.238281 -3.753906 1.09375 -3.640625 C 0.957031 -3.535156 0.875 -3.390625 0.84375 -3.203125 Z M 0.34375 -3.203125 "/></g></g></g><g fill="#3d3d3d" fill-opacity="1"><g transform="translate(158.769501, 231.202725)"><g><path d="M 0.765625 0 L 0.765625 -3.59375 L 0.296875 -3.59375 L 0.296875 -4.0625 L 1.28125 -4.0625 L 1.28125 0 Z M 0.765625 0 "/></g></g></g><g fill="#3d3d3d" fill-opacity="1"><g transform="translate(161.489482, 231.202725)"><g><path d="M 0.59375 -4.546875 L 1.125 -4.546875 L 1.125 0.609375 L 0.59375 0.609375 Z M 0.59375 -4.546875 "/></g></g></g><g fill="#3d3d3d" fill-opacity="1"><g transform="translate(164.094943, 231.202725)"><g><path d="M 4.46875 -3.96875 L 4.46875 0 L 3.953125 0 L 3.953125 -2.890625 L 2.625 0 L 2.28125 0 L 0.953125 -2.890625 L 0.953125 0 L 0.421875 0 L 0.421875 -3.96875 L 0.953125 -3.96875 L 2.453125 -0.71875 L 3.9375 -3.96875 Z M 4.46875 -3.96875 "/></g></g></g><g fill="#3d3d3d" fill-opacity="1"><g transform="translate(169.884222, 231.202725)"><g><path d="M 2.5625 -0.703125 C 2.769531 -0.921875 2.875 -1.207031 2.875 -1.5625 C 2.875 -1.914062 2.769531 -2.195312 2.5625 -2.40625 C 2.351562 -2.625 2.101562 -2.734375 1.8125 -2.734375 C 1.519531 -2.734375 1.269531 -2.628906 1.0625 -2.421875 C 0.851562 -2.222656 0.75 -1.945312 0.75 -1.59375 C 0.75 -1.238281 0.851562 -0.945312 1.0625 -0.71875 C 1.28125 -0.5 1.53125 -0.390625 1.8125 -0.390625 C 2.101562 -0.390625 2.351562 -0.492188 2.5625 -0.703125 Z M 1.71875 0.046875 C 1.289062 0.046875 0.929688 -0.101562 0.640625 -0.40625 C 0.359375 -0.71875 0.21875 -1.109375 0.21875 -1.578125 C 0.21875 -2.054688 0.359375 -2.441406 0.640625 -2.734375 C 0.929688 -3.035156 1.289062 -3.1875 1.71875 -3.1875 C 1.988281 -3.1875 2.222656 -3.125 2.421875 -3 C 2.617188 -2.875 2.769531 -2.710938 2.875 -2.515625 L 2.875 -3.140625 L 3.40625 -3.140625 L 3.40625 0 L 2.875 0 L 2.875 -0.640625 C 2.769531 -0.429688 2.617188 -0.265625 2.421875 -0.140625 C 2.222656 -0.015625 1.988281 0.046875 1.71875 0.046875 Z M 1.71875 0.046875 "/></g></g></g><g fill="#3d3d3d" fill-opacity="1"><g transform="translate(174.602683, 231.202725)"><g><path d="M 1.3125 -0.046875 L 0.0625 -3.140625 L 0.640625 -3.140625 L 1.59375 -0.59375 L 2.578125 -3.140625 L 3.109375 -3.140625 L 1.21875 1.46875 L 0.6875 1.46875 Z M 1.3125 -0.046875 "/></g></g></g><g fill="#3d3d3d" fill-opacity="1"><g transform="translate(178.674075, 231.202725)"><g><path d="M 1.765625 -0.375 C 2.054688 -0.375 2.3125 -0.476562 2.53125 -0.6875 C 2.75 -0.90625 2.859375 -1.203125 2.859375 -1.578125 C 2.859375 -1.953125 2.753906 -2.242188 2.546875 -2.453125 C 2.335938 -2.660156 2.082031 -2.765625 1.78125 -2.765625 C 1.488281 -2.765625 1.242188 -2.660156 1.046875 -2.453125 C 0.847656 -2.242188 0.75 -1.945312 0.75 -1.5625 C 0.75 -1.1875 0.84375 -0.894531 1.03125 -0.6875 C 1.226562 -0.476562 1.472656 -0.375 1.765625 -0.375 Z M 0.65625 -0.390625 C 0.363281 -0.691406 0.21875 -1.082031 0.21875 -1.5625 C 0.21875 -2.050781 0.367188 -2.441406 0.671875 -2.734375 C 0.972656 -3.035156 1.347656 -3.1875 1.796875 -3.1875 C 2.253906 -3.1875 2.632812 -3.035156 2.9375 -2.734375 C 3.238281 -2.441406 3.390625 -2.050781 3.390625 -1.5625 C 3.390625 -1.082031 3.234375 -0.691406 2.921875 -0.390625 C 2.609375 -0.0976562 2.222656 0.046875 1.765625 0.046875 C 1.316406 0.046875 0.945312 -0.0976562 0.65625 -0.390625 Z M 0.65625 -0.390625 "/></g></g></g><g fill="#3d3d3d" fill-opacity="1"><g transform="translate(183.174941, 231.202725)"><g><path d="M 0.59375 -4.546875 L 1.125 -4.546875 L 1.125 0.609375 L 0.59375 0.609375 Z M 0.59375 -4.546875 "/></g></g></g><g fill="#3d3d3d" fill-opacity="1"><g transform="translate(185.780401, 231.202725)"><g><path d="M 0.3125 -0.0625 L 0.3125 -0.421875 C 0.40625 -0.503906 0.550781 -0.628906 0.75 -0.796875 C 0.945312 -0.960938 1.09375 -1.085938 1.1875 -1.171875 C 1.28125 -1.265625 1.40625 -1.382812 1.5625 -1.53125 C 1.71875 -1.675781 1.835938 -1.796875 1.921875 -1.890625 C 2.003906 -1.992188 2.085938 -2.109375 2.171875 -2.234375 C 2.335938 -2.484375 2.421875 -2.726562 2.421875 -2.96875 C 2.421875 -3.207031 2.359375 -3.394531 2.234375 -3.53125 C 2.109375 -3.675781 1.914062 -3.75 1.65625 -3.75 C 1.394531 -3.75 1.191406 -3.664062 1.046875 -3.5 C 0.898438 -3.34375 0.820312 -3.132812 0.8125 -2.875 L 0.3125 -2.875 C 0.332031 -3.300781 0.460938 -3.628906 0.703125 -3.859375 C 0.941406 -4.085938 1.253906 -4.203125 1.640625 -4.203125 C 2.035156 -4.203125 2.347656 -4.09375 2.578125 -3.875 C 2.816406 -3.65625 2.9375 -3.359375 2.9375 -2.984375 C 2.9375 -2.523438 2.710938 -2.054688 2.265625 -1.578125 C 2.109375 -1.410156 1.988281 -1.285156 1.90625 -1.203125 C 1.65625 -0.960938 1.390625 -0.726562 1.109375 -0.5 L 3.0625 -0.5 L 3.0625 -0.0625 Z M 0.3125 -0.0625 "/></g></g></g><g fill="#3d3d3d" fill-opacity="1"><g transform="translate(189.977767, 231.202725)"><g><path d="M 0.515625 -4.1875 L 2.984375 -4.1875 L 2.984375 -3.734375 L 1 -3.734375 L 1 -2.421875 C 1.082031 -2.546875 1.207031 -2.648438 1.375 -2.734375 C 1.550781 -2.816406 1.75 -2.859375 1.96875 -2.859375 C 2.1875 -2.859375 2.382812 -2.816406 2.5625 -2.734375 C 2.75 -2.648438 2.890625 -2.539062 2.984375 -2.40625 C 3.171875 -2.125 3.265625 -1.8125 3.265625 -1.46875 C 3.265625 -1.03125 3.144531 -0.675781 2.90625 -0.40625 C 2.664062 -0.132812 2.328125 0 1.890625 0 C 1.460938 0 1.125 -0.0976562 0.875 -0.296875 C 0.632812 -0.503906 0.484375 -0.773438 0.421875 -1.109375 L 0.921875 -1.109375 C 0.972656 -0.898438 1.082031 -0.734375 1.25 -0.609375 C 1.414062 -0.492188 1.632812 -0.4375 1.90625 -0.4375 C 2.175781 -0.4375 2.390625 -0.523438 2.546875 -0.703125 C 2.703125 -0.890625 2.78125 -1.140625 2.78125 -1.453125 C 2.78125 -1.765625 2.703125 -2 2.546875 -2.15625 C 2.390625 -2.320312 2.160156 -2.40625 1.859375 -2.40625 C 1.648438 -2.40625 1.46875 -2.351562 1.3125 -2.25 C 1.164062 -2.144531 1.054688 -2 0.984375 -1.8125 L 0.515625 -1.8125 Z M 0.515625 -4.1875 "/></g></g></g></svg>